<svg width="219" height="64" viewBox="0 0 219 64" fill="none" xmlns="http://www.w3.org/2000/svg">
<path fill-rule="evenodd" clip-rule="evenodd" d="M32 0C14.3269 0 0 14.3269 0 32C0 49.6731 14.3269 64 32 64C49.6731 64 64 49.6731 64 32C64 14.3269 49.6731 0 32 0ZM32 8C18.7452 8 8 18.7452 8 32C8 45.2548 18.7452 56 32 56C45.2548 56 56 45.2548 56 32C56 18.7452 45.2548 8 32 8Z" fill="#3B82F6"/>
<path fill-rule="evenodd" clip-rule="evenodd" d="M32 16C23.1634 16 16 23.1634 16 32C16 40.8366 23.1634 48 32 48C40.8366 48 48 40.8366 48 32C48 23.1634 40.8366 16 32 16ZM32 20C25.3726 20 20 25.3726 20 32C20 38.6274 25.3726 44 32 44C38.6274 44 44 38.6274 44 32C44 25.3726 38.6274 20 32 20Z" fill="#3B82F6"/>
<path fill-rule="evenodd" clip-rule="evenodd" d="M32 24C27.5817 24 24 27.5817 24 32C24 36.4183 27.5817 40 32 40C36.4183 40 40 36.4183 40 32C40 27.5817 36.4183 24 32 24ZM32 26C28.6863 26 26 28.6863 26 32C26 35.3137 28.6863 38 32 38C35.3137 38 38 35.3137 38 32C38 28.6863 35.3137 26 32 26Z" fill="#3B82F6"/>
<path fill-rule="evenodd" clip-rule="evenodd" d="M32 28C29.7909 28 28 29.7909 28 32C28 34.2091 29.7909 36 32 36C34.2091 36 36 34.2091 36 32C36 29.7909 34.2091 28 32 28ZM32 29C30.3431 29 29 30.3431 29 32C29 33.6569 30.3431 35 32 35C33.6569 35 35 33.6569 35 32C35 30.3431 33.6569 29 32 29Z" fill="#3B82F6"/>
<path d="M77.44 44.5V40.108L91.894 23.692H77.44V19.3H97.816V23.692L83.362 40.108H97.816V44.5H77.44ZM108.545 44.968C106.889 44.968 105.377 44.542 104.009 43.69C102.653 42.838 101.567 41.692 100.751 40.252C99.9468 38.812 99.5448 37.222 99.5448 35.482C99.5448 34.174 99.7788 32.95 100.247 31.81C100.715 30.658 101.357 29.65 102.173 28.786C103.001 27.91 103.961 27.226 105.053 26.734C106.145 26.242 107.309 25.996 108.545 25.996C109.949 25.996 111.233 26.296 112.397 26.896C113.573 27.484 114.569 28.294 115.385 29.326C116.201 30.358 116.795 31.534 117.167 32.854C117.539 34.174 117.623 35.554 117.419 36.994H104.261C104.429 37.666 104.705 38.272 105.089 38.812C105.473 39.34 105.959 39.766 106.547 40.09C107.135 40.402 107.801 40.564 108.545 40.576C109.313 40.588 110.009 40.408 110.633 40.036C111.269 39.652 111.797 39.136 112.217 38.488L116.699 39.532C115.967 41.128 114.875 42.436 113.423 43.456C111.971 44.464 110.345 44.968 108.545 44.968ZM104.117 33.7H112.973C112.841 32.98 112.559 32.332 112.127 31.756C111.707 31.168 111.185 30.7 110.561 30.352C109.937 30.004 109.265 29.83 108.545 29.83C107.825 29.83 107.159 30.004 106.547 30.352C105.935 30.688 105.413 31.15 104.981 31.738C104.561 32.314 104.273 32.968 104.117 33.7ZM136.836 33.124V44.5H132.444V34.276C132.444 33.568 132.27 32.926 131.922 32.35C131.574 31.762 131.106 31.3 130.518 30.964C129.942 30.616 129.3 30.442 128.592 30.442C127.884 30.442 127.236 30.616 126.648 30.964C126.072 31.3 125.61 31.762 125.262 32.35C124.926 32.926 124.758 33.568 124.758 34.276V44.5H120.366L120.348 26.5H124.74L124.758 28.102C125.37 27.454 126.102 26.944 126.954 26.572C127.806 26.188 128.724 25.996 129.708 25.996C131.016 25.996 132.21 26.32 133.29 26.968C134.37 27.604 135.228 28.462 135.864 29.542C136.512 30.61 136.836 31.804 136.836 33.124ZM155.359 19.3H159.751V44.5H155.359V33.196H144.919V44.5H140.527V19.3H144.919V28.804H155.359V19.3ZM177.373 26.5H181.765V44.5H177.373L177.175 42.268C176.683 43.072 176.029 43.726 175.213 44.23C174.409 44.722 173.455 44.968 172.351 44.968C171.019 44.968 169.771 44.716 168.607 44.212C167.443 43.708 166.417 43.012 165.529 42.124C164.653 41.236 163.963 40.21 163.459 39.046C162.967 37.882 162.721 36.634 162.721 35.302C162.721 34.018 162.955 32.812 163.423 31.684C163.903 30.556 164.569 29.566 165.421 28.714C166.273 27.862 167.257 27.196 168.373 26.716C169.489 26.236 170.689 25.996 171.973 25.996C173.161 25.996 174.223 26.26 175.159 26.788C176.107 27.316 176.911 27.988 177.571 28.804L177.373 26.5ZM172.243 40.738C173.179 40.738 174.007 40.504 174.727 40.036C175.447 39.568 176.011 38.938 176.419 38.146C176.827 37.342 177.031 36.46 177.031 35.5C177.031 34.528 176.827 33.646 176.419 32.854C176.011 32.05 175.441 31.414 174.709 30.946C173.989 30.478 173.167 30.244 172.243 30.244C171.319 30.244 170.473 30.484 169.705 30.964C168.949 31.432 168.343 32.062 167.887 32.854C167.443 33.646 167.221 34.528 167.221 35.5C167.221 36.472 167.449 37.354 167.905 38.146C168.361 38.938 168.967 39.568 169.723 40.036C170.491 40.504 171.331 40.738 172.243 40.738ZM184.631 37.84V26.5H189.023V36.688C189.023 37.396 189.197 38.044 189.545 38.632C189.893 39.208 190.355 39.67 190.931 40.018C191.519 40.354 192.161 40.522 192.857 40.522C193.577 40.522 194.225 40.354 194.801 40.018C195.377 39.67 195.839 39.208 196.187 38.632C196.535 38.044 196.709 37.396 196.709 36.688V26.5H201.101L201.119 44.5H196.727L196.709 42.862C196.085 43.51 195.347 44.026 194.495 44.41C193.643 44.782 192.731 44.968 191.759 44.968C190.451 44.968 189.257 44.65 188.177 44.014C187.097 43.366 186.233 42.508 185.585 41.44C184.949 40.36 184.631 39.16 184.631 37.84ZM210.033 44.824C209.097 44.764 208.191 44.578 207.314 44.266C206.451 43.942 205.683 43.504 205.011 42.952C204.339 42.4 203.823 41.74 203.463 40.972L207.171 39.388C207.315 39.628 207.549 39.886 207.873 40.162C208.197 40.426 208.581 40.648 209.025 40.828C209.481 41.008 209.979 41.098 210.519 41.098C210.975 41.098 211.407 41.038 211.814 40.918C212.235 40.786 212.571 40.588 212.823 40.324C213.087 40.06 213.219 39.718 213.219 39.298C213.219 38.854 213.063 38.512 212.751 38.272C212.451 38.02 212.067 37.834 211.599 37.714C211.143 37.582 210.699 37.462 210.267 37.354C209.127 37.126 208.065 36.772 207.081 36.292C206.109 35.812 205.323 35.194 204.723 34.438C204.135 33.67 203.841 32.746 203.841 31.666C203.841 30.478 204.153 29.452 204.777 28.588C205.413 27.724 206.235 27.058 207.243 26.59C208.263 26.122 209.361 25.888 210.537 25.888C211.965 25.888 213.273 26.188 214.461 26.788C215.661 27.376 216.609 28.21 217.305 29.29L213.831 31.342C213.663 31.054 213.429 30.79 213.129 30.55C212.829 30.298 212.487 30.094 212.103 29.938C211.719 29.77 211.317 29.674 210.897 29.65C210.357 29.626 209.865 29.674 209.421 29.794C208.977 29.914 208.617 30.118 208.341 30.406C208.077 30.694 207.945 31.078 207.945 31.558C207.945 32.014 208.125 32.356 208.485 32.584C208.845 32.8 209.277 32.968 209.781 33.088C210.297 33.208 210.789 33.34 211.257 33.484C212.313 33.832 213.303 34.258 214.227 34.762C215.163 35.266 215.913 35.884 216.477 36.616C217.041 37.348 217.311 38.224 217.287 39.244C217.287 40.408 216.939 41.428 216.243 42.304C215.547 43.168 214.647 43.828 213.543 44.284C212.451 44.74 211.281 44.92 210.033 44.824Z" fill="url(#paint0_linear_6_3639)"/>
<defs>
<linearGradient id="paint0_linear_6_3639" x1="76" y1="32" x2="219" y2="32" gradientUnits="userSpaceOnUse">
<stop stop-color="#3B82F6"/>
<stop offset="1" stop-color="#6B21A8"/>
</linearGradient>
</defs>
</svg>
