<svg width="64" height="64" viewBox="0 0 64 64" fill="none" xmlns="http://www.w3.org/2000/svg">
<path fill-rule="evenodd" clip-rule="evenodd" d="M32 0C14.3269 0 0 14.3269 0 32C0 49.6731 14.3269 64 32 64C49.6731 64 64 49.6731 64 32C64 14.3269 49.6731 0 32 0ZM32 8C18.7452 8 8 18.7452 8 32C8 45.2548 18.7452 56 32 56C45.2548 56 56 45.2548 56 32C56 18.7452 45.2548 8 32 8Z" fill="#3B82F6"/>
<path fill-rule="evenodd" clip-rule="evenodd" d="M32 16C23.1634 16 16 23.1634 16 32C16 40.8366 23.1634 48 32 48C40.8366 48 48 40.8366 48 32C48 23.1634 40.8366 16 32 16ZM32 20C25.3726 20 20 25.3726 20 32C20 38.6274 25.3726 44 32 44C38.6274 44 44 38.6274 44 32C44 25.3726 38.6274 20 32 20Z" fill="#3B82F6"/>
<path fill-rule="evenodd" clip-rule="evenodd" d="M32 24C27.5817 24 24 27.5817 24 32C24 36.4183 27.5817 40 32 40C36.4183 40 40 36.4183 40 32C40 27.5817 36.4183 24 32 24ZM32 26C28.6863 26 26 28.6863 26 32C26 35.3137 28.6863 38 32 38C35.3137 38 38 35.3137 38 32C38 28.6863 35.3137 26 32 26Z" fill="#3B82F6"/>
<path fill-rule="evenodd" clip-rule="evenodd" d="M32 28C29.7909 28 28 29.7909 28 32C28 34.2091 29.7909 36 32 36C34.2091 36 36 34.2091 36 32C36 29.7909 34.2091 28 32 28ZM32 29C30.3431 29 29 30.3431 29 32C29 33.6569 30.3431 35 32 35C33.6569 35 35 33.6569 35 32C35 30.3431 33.6569 29 32 29Z" fill="#3B82F6"/>
</svg>
