<svg width="640" height="384" viewBox="0 0 640 384" fill="none" xmlns="http://www.w3.org/2000/svg">
<rect x="0.5" y="0.5" width="383" height="383" rx="191.5" stroke="#525252"/>
<path d="M164.372 29.382C165.128 29.382 165.794 29.538 166.37 29.85C166.946 30.162 167.39 30.606 167.702 31.182C168.026 31.746 168.188 32.4 168.188 33.144C168.188 33.876 168.026 34.524 167.702 35.088C167.378 35.652 166.916 36.09 166.316 36.402C165.728 36.702 165.044 36.852 164.264 36.852H161.384C161.324 36.852 161.294 36.882 161.294 36.942V41.784C161.294 41.844 161.27 41.898 161.222 41.946C161.186 41.982 161.138 42 161.078 42H159.422C159.362 42 159.308 41.982 159.26 41.946C159.224 41.898 159.206 41.844 159.206 41.784V29.598C159.206 29.538 159.224 29.49 159.26 29.454C159.308 29.406 159.362 29.382 159.422 29.382H164.372ZM164.066 35.16C164.678 35.16 165.17 34.98 165.542 34.62C165.914 34.26 166.1 33.786 166.1 33.198C166.1 32.598 165.914 32.112 165.542 31.74C165.17 31.368 164.678 31.182 164.066 31.182H161.384C161.324 31.182 161.294 31.212 161.294 31.272V35.07C161.294 35.13 161.324 35.16 161.384 35.16H164.066ZM170.037 42C169.977 42 169.923 41.982 169.875 41.946C169.839 41.898 169.821 41.844 169.821 41.784V29.616C169.821 29.556 169.839 29.508 169.875 29.472C169.923 29.424 169.977 29.4 170.037 29.4H171.693C171.753 29.4 171.801 29.424 171.837 29.472C171.885 29.508 171.909 29.556 171.909 29.616V41.784C171.909 41.844 171.885 41.898 171.837 41.946C171.801 41.982 171.753 42 171.693 42H170.037ZM177.638 32.658C178.394 32.658 179.06 32.79 179.636 33.054C180.212 33.318 180.656 33.684 180.968 34.152C181.28 34.608 181.436 35.13 181.436 35.718V41.784C181.436 41.844 181.412 41.898 181.364 41.946C181.328 41.982 181.28 42 181.22 42H179.564C179.504 42 179.45 41.982 179.402 41.946C179.366 41.898 179.348 41.844 179.348 41.784V41.208C179.348 41.172 179.336 41.154 179.312 41.154C179.288 41.142 179.264 41.148 179.24 41.172C178.652 41.82 177.8 42.144 176.684 42.144C175.784 42.144 175.04 41.916 174.452 41.46C173.876 41.004 173.588 40.326 173.588 39.426C173.588 38.49 173.912 37.764 174.56 37.248C175.22 36.72 176.144 36.456 177.332 36.456H179.258C179.318 36.456 179.348 36.426 179.348 36.366V35.934C179.348 35.466 179.21 35.106 178.934 34.854C178.658 34.59 178.244 34.458 177.692 34.458C177.236 34.458 176.864 34.542 176.576 34.71C176.3 34.866 176.126 35.088 176.054 35.376C176.018 35.52 175.934 35.58 175.802 35.556L174.056 35.34C173.996 35.328 173.942 35.31 173.894 35.286C173.858 35.25 173.846 35.208 173.858 35.16C173.954 34.428 174.344 33.828 175.028 33.36C175.724 32.892 176.594 32.658 177.638 32.658ZM177.206 40.488C177.794 40.488 178.298 40.332 178.718 40.02C179.138 39.708 179.348 39.312 179.348 38.832V37.986C179.348 37.926 179.318 37.896 179.258 37.896H177.746C177.11 37.896 176.606 38.016 176.234 38.256C175.874 38.496 175.694 38.838 175.694 39.282C175.694 39.666 175.832 39.966 176.108 40.182C176.396 40.386 176.762 40.488 177.206 40.488ZM187.942 32.658C188.914 32.658 189.688 32.946 190.264 33.522C190.852 34.098 191.146 34.884 191.146 35.88V41.784C191.146 41.844 191.122 41.898 191.074 41.946C191.038 41.982 190.99 42 190.93 42H189.274C189.214 42 189.16 41.982 189.112 41.946C189.076 41.898 189.058 41.844 189.058 41.784V36.312C189.058 35.76 188.902 35.316 188.59 34.98C188.278 34.632 187.864 34.458 187.348 34.458C186.832 34.458 186.412 34.626 186.088 34.962C185.776 35.298 185.62 35.742 185.62 36.294V41.784C185.62 41.844 185.596 41.898 185.548 41.946C185.512 41.982 185.464 42 185.404 42H183.748C183.688 42 183.634 41.982 183.586 41.946C183.55 41.898 183.532 41.844 183.532 41.784V33.018C183.532 32.958 183.55 32.91 183.586 32.874C183.634 32.826 183.688 32.802 183.748 32.802H185.404C185.464 32.802 185.512 32.826 185.548 32.874C185.596 32.91 185.62 32.958 185.62 33.018V33.594C185.62 33.63 185.632 33.654 185.656 33.666C185.68 33.678 185.698 33.666 185.71 33.63C186.202 32.982 186.946 32.658 187.942 32.658ZM197.733 32.658C198.705 32.658 199.479 32.946 200.055 33.522C200.643 34.098 200.937 34.884 200.937 35.88V41.784C200.937 41.844 200.913 41.898 200.865 41.946C200.829 41.982 200.781 42 200.721 42H199.065C199.005 42 198.951 41.982 198.903 41.946C198.867 41.898 198.849 41.844 198.849 41.784V36.312C198.849 35.76 198.693 35.316 198.381 34.98C198.069 34.632 197.655 34.458 197.139 34.458C196.623 34.458 196.203 34.626 195.879 34.962C195.567 35.298 195.411 35.742 195.411 36.294V41.784C195.411 41.844 195.387 41.898 195.339 41.946C195.303 41.982 195.255 42 195.195 42H193.539C193.479 42 193.425 41.982 193.377 41.946C193.341 41.898 193.323 41.844 193.323 41.784V33.018C193.323 32.958 193.341 32.91 193.377 32.874C193.425 32.826 193.479 32.802 193.539 32.802H195.195C195.255 32.802 195.303 32.826 195.339 32.874C195.387 32.91 195.411 32.958 195.411 33.018V33.594C195.411 33.63 195.423 33.654 195.447 33.666C195.471 33.678 195.489 33.666 195.501 33.63C195.993 32.982 196.737 32.658 197.733 32.658ZM204.302 31.542C203.93 31.542 203.624 31.422 203.384 31.182C203.144 30.942 203.024 30.636 203.024 30.264C203.024 29.892 203.144 29.586 203.384 29.346C203.624 29.106 203.93 28.986 204.302 28.986C204.674 28.986 204.98 29.106 205.22 29.346C205.46 29.586 205.58 29.892 205.58 30.264C205.58 30.636 205.46 30.942 205.22 31.182C204.98 31.422 204.674 31.542 204.302 31.542ZM203.438 42C203.378 42 203.324 41.982 203.276 41.946C203.24 41.898 203.222 41.844 203.222 41.784V33C203.222 32.94 203.24 32.892 203.276 32.856C203.324 32.808 203.378 32.784 203.438 32.784H205.094C205.154 32.784 205.202 32.808 205.238 32.856C205.286 32.892 205.31 32.94 205.31 33V41.784C205.31 41.844 205.286 41.898 205.238 41.946C205.202 41.982 205.154 42 205.094 42H203.438ZM212.112 32.658C213.084 32.658 213.858 32.946 214.434 33.522C215.022 34.098 215.316 34.884 215.316 35.88V41.784C215.316 41.844 215.292 41.898 215.244 41.946C215.208 41.982 215.16 42 215.1 42H213.444C213.384 42 213.33 41.982 213.282 41.946C213.246 41.898 213.228 41.844 213.228 41.784V36.312C213.228 35.76 213.072 35.316 212.76 34.98C212.448 34.632 212.034 34.458 211.518 34.458C211.002 34.458 210.582 34.626 210.258 34.962C209.946 35.298 209.79 35.742 209.79 36.294V41.784C209.79 41.844 209.766 41.898 209.718 41.946C209.682 41.982 209.634 42 209.574 42H207.918C207.858 42 207.804 41.982 207.756 41.946C207.72 41.898 207.702 41.844 207.702 41.784V33.018C207.702 32.958 207.72 32.91 207.756 32.874C207.804 32.826 207.858 32.802 207.918 32.802H209.574C209.634 32.802 209.682 32.826 209.718 32.874C209.766 32.91 209.79 32.958 209.79 33.018V33.594C209.79 33.63 209.802 33.654 209.826 33.666C209.85 33.678 209.868 33.666 209.88 33.63C210.372 32.982 211.116 32.658 212.112 32.658ZM223.127 33.018C223.127 32.958 223.145 32.91 223.181 32.874C223.229 32.826 223.283 32.802 223.343 32.802H224.999C225.059 32.802 225.107 32.826 225.143 32.874C225.191 32.91 225.215 32.958 225.215 33.018V41.388C225.215 42.888 224.783 43.956 223.919 44.592C223.067 45.24 221.945 45.564 220.553 45.564C220.181 45.564 219.815 45.546 219.455 45.51C219.323 45.498 219.257 45.42 219.257 45.276L219.311 43.8C219.311 43.668 219.395 43.602 219.563 43.602C219.911 43.638 220.223 43.656 220.499 43.656C221.399 43.656 222.059 43.476 222.479 43.116C222.911 42.768 223.127 42.174 223.127 41.334V41.19C223.127 41.154 223.115 41.136 223.091 41.136C223.067 41.124 223.043 41.13 223.019 41.154C222.527 41.682 221.831 41.946 220.931 41.946C220.151 41.946 219.437 41.748 218.789 41.352C218.141 40.956 217.691 40.35 217.439 39.534C217.283 38.97 217.205 38.244 217.205 37.356C217.205 36.36 217.301 35.598 217.493 35.07C217.733 34.338 218.147 33.756 218.735 33.324C219.323 32.88 220.013 32.658 220.805 32.658C221.753 32.658 222.491 32.934 223.019 33.486C223.043 33.522 223.067 33.534 223.091 33.522C223.115 33.51 223.127 33.486 223.127 33.45V33.018ZM223.001 38.94C223.049 38.76 223.079 38.568 223.091 38.364C223.115 38.148 223.127 37.806 223.127 37.338C223.127 36.882 223.115 36.558 223.091 36.366C223.079 36.162 223.043 35.964 222.983 35.772C222.887 35.376 222.689 35.058 222.389 34.818C222.101 34.578 221.729 34.458 221.273 34.458C220.841 34.458 220.475 34.578 220.175 34.818C219.875 35.058 219.659 35.376 219.527 35.772C219.383 36.108 219.311 36.636 219.311 37.356C219.311 38.1 219.371 38.622 219.491 38.922C219.611 39.306 219.827 39.624 220.139 39.876C220.463 40.116 220.847 40.236 221.291 40.236C221.759 40.236 222.137 40.116 222.425 39.876C222.713 39.636 222.905 39.324 223.001 38.94Z" fill="#525252"/>
<rect x="256.5" y="0.5" width="383" height="383" rx="191.5" stroke="#525252"/>
<path d="M397.53 42C397.47 42 397.416 41.982 397.368 41.946C397.332 41.898 397.314 41.844 397.314 41.784V29.616C397.314 29.556 397.332 29.508 397.368 29.472C397.416 29.424 397.47 29.4 397.53 29.4H401.922C402.774 29.4 403.524 29.55 404.172 29.85C404.82 30.15 405.318 30.582 405.666 31.146C406.026 31.698 406.206 32.346 406.206 33.09V38.31C406.206 39.054 406.026 39.708 405.666 40.272C405.318 40.824 404.82 41.25 404.172 41.55C403.524 41.85 402.774 42 401.922 42H397.53ZM399.402 40.11C399.402 40.17 399.432 40.2 399.492 40.2H402.012C402.648 40.2 403.152 40.002 403.524 39.606C403.908 39.198 404.106 38.658 404.118 37.986V33.432C404.118 32.748 403.926 32.208 403.542 31.812C403.158 31.404 402.642 31.2 401.994 31.2H399.492C399.432 31.2 399.402 31.23 399.402 31.29V40.11ZM416.001 36.366C416.049 36.666 416.073 37.002 416.073 37.374L416.055 37.932C416.055 38.076 415.983 38.148 415.839 38.148H410.205C410.145 38.148 410.115 38.178 410.115 38.238C410.151 38.634 410.205 38.904 410.277 39.048C410.565 39.912 411.267 40.35 412.383 40.362C413.199 40.362 413.847 40.026 414.327 39.354C414.375 39.282 414.435 39.246 414.507 39.246C414.555 39.246 414.597 39.264 414.633 39.3L415.749 40.218C415.857 40.302 415.875 40.398 415.803 40.506C415.431 41.034 414.933 41.442 414.309 41.73C413.697 42.018 413.013 42.162 412.257 42.162C411.321 42.162 410.523 41.952 409.863 41.532C409.215 41.112 408.741 40.524 408.441 39.768C408.165 39.12 408.027 38.22 408.027 37.068C408.027 36.372 408.099 35.808 408.243 35.376C408.483 34.536 408.933 33.876 409.593 33.396C410.265 32.904 411.069 32.658 412.005 32.658C414.369 32.658 415.701 33.894 416.001 36.366ZM412.005 34.458C411.561 34.458 411.189 34.572 410.889 34.8C410.601 35.016 410.397 35.322 410.277 35.718C410.205 35.922 410.157 36.186 410.133 36.51C410.109 36.57 410.133 36.6 410.205 36.6H413.859C413.919 36.6 413.949 36.57 413.949 36.51C413.925 36.21 413.889 35.982 413.841 35.826C413.733 35.394 413.517 35.058 413.193 34.818C412.881 34.578 412.485 34.458 412.005 34.458ZM420.061 42C419.941 42 419.863 41.94 419.827 41.82L416.929 33.036C416.917 33.012 416.911 32.982 416.911 32.946C416.911 32.838 416.977 32.784 417.109 32.784H418.945C419.077 32.784 419.161 32.844 419.197 32.964L420.943 38.976C420.955 39.012 420.973 39.03 420.997 39.03C421.021 39.03 421.039 39.012 421.051 38.976L422.797 32.964C422.833 32.844 422.917 32.784 423.049 32.784L424.885 32.82C424.957 32.82 425.011 32.844 425.047 32.892C425.083 32.928 425.089 32.988 425.065 33.072L422.185 41.82C422.149 41.94 422.071 42 421.951 42H420.061ZM433.913 36.366C433.961 36.666 433.985 37.002 433.985 37.374L433.967 37.932C433.967 38.076 433.895 38.148 433.751 38.148H428.117C428.057 38.148 428.027 38.178 428.027 38.238C428.063 38.634 428.117 38.904 428.189 39.048C428.477 39.912 429.179 40.35 430.295 40.362C431.111 40.362 431.759 40.026 432.239 39.354C432.287 39.282 432.347 39.246 432.419 39.246C432.467 39.246 432.509 39.264 432.545 39.3L433.661 40.218C433.769 40.302 433.787 40.398 433.715 40.506C433.343 41.034 432.845 41.442 432.221 41.73C431.609 42.018 430.925 42.162 430.169 42.162C429.233 42.162 428.435 41.952 427.775 41.532C427.127 41.112 426.653 40.524 426.353 39.768C426.077 39.12 425.939 38.22 425.939 37.068C425.939 36.372 426.011 35.808 426.155 35.376C426.395 34.536 426.845 33.876 427.505 33.396C428.177 32.904 428.981 32.658 429.917 32.658C432.281 32.658 433.613 33.894 433.913 36.366ZM429.917 34.458C429.473 34.458 429.101 34.572 428.801 34.8C428.513 35.016 428.309 35.322 428.189 35.718C428.117 35.922 428.069 36.186 428.045 36.51C428.021 36.57 428.045 36.6 428.117 36.6H431.771C431.831 36.6 431.861 36.57 431.861 36.51C431.837 36.21 431.801 35.982 431.753 35.826C431.645 35.394 431.429 35.058 431.105 34.818C430.793 34.578 430.397 34.458 429.917 34.458ZM436.109 42C436.049 42 435.995 41.982 435.947 41.946C435.911 41.898 435.893 41.844 435.893 41.784V29.616C435.893 29.556 435.911 29.508 435.947 29.472C435.995 29.424 436.049 29.4 436.109 29.4H437.765C437.825 29.4 437.873 29.424 437.909 29.472C437.957 29.508 437.981 29.556 437.981 29.616V41.784C437.981 41.844 437.957 41.898 437.909 41.946C437.873 41.982 437.825 42 437.765 42H436.109ZM444.106 42.144C443.158 42.144 442.342 41.904 441.658 41.424C440.986 40.944 440.512 40.278 440.236 39.426C440.032 38.778 439.93 38.094 439.93 37.374C439.93 36.606 440.026 35.922 440.218 35.322C440.494 34.482 440.974 33.828 441.658 33.36C442.342 32.892 443.164 32.658 444.124 32.658C445.036 32.658 445.822 32.892 446.482 33.36C447.154 33.828 447.628 34.476 447.904 35.304C448.12 35.88 448.228 36.564 448.228 37.356C448.228 38.112 448.126 38.796 447.922 39.408C447.646 40.26 447.172 40.932 446.5 41.424C445.828 41.904 445.03 42.144 444.106 42.144ZM444.106 40.344C444.55 40.344 444.928 40.218 445.24 39.966C445.564 39.714 445.798 39.36 445.942 38.904C446.062 38.508 446.122 38.004 446.122 37.392C446.122 36.744 446.062 36.24 445.942 35.88C445.81 35.424 445.582 35.076 445.258 34.836C444.934 34.584 444.538 34.458 444.07 34.458C443.626 34.458 443.242 34.584 442.918 34.836C442.594 35.076 442.36 35.424 442.216 35.88C442.096 36.3 442.036 36.804 442.036 37.392C442.036 37.98 442.096 38.484 442.216 38.904C442.348 39.36 442.576 39.714 442.9 39.966C443.236 40.218 443.638 40.344 444.106 40.344ZM457.996 35.178C458.212 35.79 458.32 36.54 458.32 37.428C458.32 38.28 458.218 39.012 458.014 39.624C457.75 40.416 457.324 41.034 456.736 41.478C456.16 41.922 455.428 42.144 454.54 42.144C453.688 42.144 453.004 41.838 452.488 41.226C452.464 41.202 452.44 41.196 452.416 41.208C452.392 41.22 452.38 41.244 452.38 41.28V45.186C452.38 45.246 452.356 45.294 452.308 45.33C452.272 45.378 452.224 45.402 452.164 45.402H450.508C450.448 45.402 450.394 45.378 450.346 45.33C450.31 45.294 450.292 45.246 450.292 45.186V33.018C450.292 32.958 450.31 32.91 450.346 32.874C450.394 32.826 450.448 32.802 450.508 32.802H452.164C452.224 32.802 452.272 32.826 452.308 32.874C452.356 32.91 452.38 32.958 452.38 33.018V33.558C452.38 33.594 452.392 33.618 452.416 33.63C452.44 33.642 452.464 33.63 452.488 33.594C453.016 32.97 453.706 32.658 454.558 32.658C455.41 32.658 456.13 32.88 456.718 33.324C457.306 33.768 457.732 34.386 457.996 35.178ZM455.656 39.588C456.016 39.036 456.196 38.304 456.196 37.392C456.196 36.516 456.052 35.826 455.764 35.322C455.428 34.734 454.918 34.44 454.234 34.44C453.61 34.44 453.142 34.728 452.83 35.304C452.554 35.772 452.416 36.468 452.416 37.392C452.416 38.34 452.566 39.06 452.866 39.552C453.178 40.08 453.628 40.344 454.216 40.344C454.852 40.344 455.332 40.092 455.656 39.588ZM470.191 32.658C471.115 32.658 471.835 32.94 472.351 33.504C472.879 34.056 473.143 34.83 473.143 35.826V41.784C473.143 41.844 473.119 41.898 473.071 41.946C473.035 41.982 472.987 42 472.927 42H471.289C471.229 42 471.175 41.982 471.127 41.946C471.091 41.898 471.073 41.844 471.073 41.784V36.258C471.073 35.706 470.923 35.268 470.623 34.944C470.335 34.62 469.945 34.458 469.453 34.458C468.961 34.458 468.559 34.62 468.247 34.944C467.935 35.268 467.779 35.7 467.779 36.24V41.784C467.779 41.844 467.755 41.898 467.707 41.946C467.671 41.982 467.623 42 467.563 42H465.925C465.865 42 465.811 41.982 465.763 41.946C465.727 41.898 465.709 41.844 465.709 41.784V36.258C465.709 35.706 465.559 35.268 465.259 34.944C464.959 34.62 464.563 34.458 464.071 34.458C463.615 34.458 463.237 34.59 462.937 34.854C462.649 35.118 462.481 35.478 462.433 35.934V41.784C462.433 41.844 462.409 41.898 462.361 41.946C462.325 41.982 462.277 42 462.217 42H460.561C460.501 42 460.447 41.982 460.399 41.946C460.363 41.898 460.345 41.844 460.345 41.784V33.018C460.345 32.958 460.363 32.91 460.399 32.874C460.447 32.826 460.501 32.802 460.561 32.802H462.217C462.277 32.802 462.325 32.826 462.361 32.874C462.409 32.91 462.433 32.958 462.433 33.018V33.612C462.433 33.648 462.445 33.672 462.469 33.684C462.493 33.696 462.517 33.684 462.541 33.648C462.805 33.312 463.129 33.066 463.513 32.91C463.909 32.742 464.347 32.658 464.827 32.658C465.415 32.658 465.931 32.778 466.375 33.018C466.819 33.258 467.161 33.606 467.401 34.062C467.437 34.11 467.479 34.11 467.527 34.062C467.791 33.582 468.157 33.228 468.625 33C469.093 32.772 469.615 32.658 470.191 32.658ZM482.956 36.366C483.004 36.666 483.028 37.002 483.028 37.374L483.01 37.932C483.01 38.076 482.938 38.148 482.794 38.148H477.16C477.1 38.148 477.07 38.178 477.07 38.238C477.106 38.634 477.16 38.904 477.232 39.048C477.52 39.912 478.222 40.35 479.338 40.362C480.154 40.362 480.802 40.026 481.282 39.354C481.33 39.282 481.39 39.246 481.462 39.246C481.51 39.246 481.552 39.264 481.588 39.3L482.704 40.218C482.812 40.302 482.83 40.398 482.758 40.506C482.386 41.034 481.888 41.442 481.264 41.73C480.652 42.018 479.968 42.162 479.212 42.162C478.276 42.162 477.478 41.952 476.818 41.532C476.17 41.112 475.696 40.524 475.396 39.768C475.12 39.12 474.982 38.22 474.982 37.068C474.982 36.372 475.054 35.808 475.198 35.376C475.438 34.536 475.888 33.876 476.548 33.396C477.22 32.904 478.024 32.658 478.96 32.658C481.324 32.658 482.656 33.894 482.956 36.366ZM478.96 34.458C478.516 34.458 478.144 34.572 477.844 34.8C477.556 35.016 477.352 35.322 477.232 35.718C477.16 35.922 477.112 36.186 477.088 36.51C477.064 36.57 477.088 36.6 477.16 36.6H480.814C480.874 36.6 480.904 36.57 480.904 36.51C480.88 36.21 480.844 35.982 480.796 35.826C480.688 35.394 480.472 35.058 480.148 34.818C479.836 34.578 479.44 34.458 478.96 34.458ZM489.346 32.658C490.318 32.658 491.092 32.946 491.668 33.522C492.256 34.098 492.55 34.884 492.55 35.88V41.784C492.55 41.844 492.526 41.898 492.478 41.946C492.442 41.982 492.394 42 492.334 42H490.678C490.618 42 490.564 41.982 490.516 41.946C490.48 41.898 490.462 41.844 490.462 41.784V36.312C490.462 35.76 490.306 35.316 489.994 34.98C489.682 34.632 489.268 34.458 488.752 34.458C488.236 34.458 487.816 34.626 487.492 34.962C487.18 35.298 487.024 35.742 487.024 36.294V41.784C487.024 41.844 487 41.898 486.952 41.946C486.916 41.982 486.868 42 486.808 42H485.152C485.092 42 485.038 41.982 484.99 41.946C484.954 41.898 484.936 41.844 484.936 41.784V33.018C484.936 32.958 484.954 32.91 484.99 32.874C485.038 32.826 485.092 32.802 485.152 32.802H486.808C486.868 32.802 486.916 32.826 486.952 32.874C487 32.91 487.024 32.958 487.024 33.018V33.594C487.024 33.63 487.036 33.654 487.06 33.666C487.084 33.678 487.102 33.666 487.114 33.63C487.606 32.982 488.35 32.658 489.346 32.658ZM499.605 34.278C499.605 34.338 499.581 34.392 499.533 34.44C499.497 34.476 499.449 34.494 499.389 34.494H497.553C497.493 34.494 497.463 34.524 497.463 34.584V38.922C497.463 39.378 497.559 39.708 497.751 39.912C497.955 40.116 498.273 40.218 498.705 40.218H499.245C499.305 40.218 499.353 40.242 499.389 40.29C499.437 40.326 499.461 40.374 499.461 40.434V41.784C499.461 41.916 499.389 41.994 499.245 42.018L498.309 42.036C497.361 42.036 496.653 41.874 496.185 41.55C495.717 41.226 495.477 40.614 495.465 39.714V34.584C495.465 34.524 495.435 34.494 495.375 34.494H494.349C494.289 34.494 494.235 34.476 494.187 34.44C494.151 34.392 494.133 34.338 494.133 34.278V33.018C494.133 32.958 494.151 32.91 494.187 32.874C494.235 32.826 494.289 32.802 494.349 32.802H495.375C495.435 32.802 495.465 32.772 495.465 32.712V30.606C495.465 30.546 495.483 30.498 495.519 30.462C495.567 30.414 495.621 30.39 495.681 30.39H497.247C497.307 30.39 497.355 30.414 497.391 30.462C497.439 30.498 497.463 30.546 497.463 30.606V32.712C497.463 32.772 497.493 32.802 497.553 32.802H499.389C499.449 32.802 499.497 32.826 499.533 32.874C499.581 32.91 499.605 32.958 499.605 33.018V34.278Z" fill="#525252"/>
<rect x="472" y="294" width="100" height="30" rx="15" fill="#525252"/>
<path d="M505.104 314C505.024 314 504.984 313.96 504.984 313.88V305.72C504.984 305.64 505.024 305.6 505.104 305.6H508.008C508.84 305.6 509.504 305.82 510 306.26C510.496 306.692 510.744 307.272 510.744 308V311.6C510.744 312.328 510.496 312.912 510 313.352C509.504 313.784 508.84 314 508.008 314H505.104ZM506.136 312.956C506.136 312.988 506.152 313.004 506.184 313.004H508.056C508.52 313.004 508.888 312.864 509.16 312.584C509.44 312.296 509.584 311.912 509.592 311.432V308.168C509.592 307.688 509.452 307.308 509.172 307.028C508.9 306.74 508.528 306.596 508.056 306.596H506.184C506.152 306.596 506.136 306.612 506.136 306.644V312.956ZM517.202 310.184C517.234 310.512 517.246 310.88 517.238 311.288C517.238 311.368 517.198 311.408 517.118 311.408H513.29C513.258 311.408 513.242 311.424 513.242 311.456C513.242 311.728 513.266 311.936 513.314 312.08C513.402 312.4 513.578 312.652 513.842 312.836C514.114 313.012 514.454 313.1 514.862 313.1C515.454 313.1 515.91 312.856 516.23 312.368C516.27 312.288 516.322 312.276 516.386 312.332L517.07 312.788C517.126 312.836 517.138 312.888 517.106 312.944C516.882 313.304 516.562 313.588 516.146 313.796C515.738 314.004 515.274 314.108 514.754 314.108C514.17 314.108 513.678 313.98 513.278 313.724C512.878 313.468 512.578 313.104 512.378 312.632C512.186 312.16 512.09 311.588 512.09 310.916C512.09 310.332 512.134 309.888 512.222 309.584C512.366 309.032 512.654 308.596 513.086 308.276C513.518 307.956 514.042 307.796 514.658 307.796C515.466 307.796 516.07 308 516.47 308.408C516.87 308.808 517.114 309.4 517.202 310.184ZM514.658 308.792C514.314 308.792 514.03 308.88 513.806 309.056C513.582 309.224 513.43 309.452 513.35 309.74C513.294 309.916 513.258 310.14 513.242 310.412C513.242 310.444 513.258 310.46 513.29 310.46H516.038C516.07 310.46 516.086 310.444 516.086 310.412C516.07 310.148 516.046 309.952 516.014 309.824C515.934 309.512 515.774 309.264 515.534 309.08C515.302 308.888 515.01 308.792 514.658 308.792ZM523.648 309.428C523.8 309.86 523.876 310.372 523.876 310.964C523.876 311.524 523.812 312.008 523.684 312.416C523.516 312.952 523.24 313.368 522.856 313.664C522.472 313.952 521.98 314.096 521.38 314.096C521.108 314.096 520.848 314.044 520.6 313.94C520.36 313.828 520.152 313.672 519.976 313.472C519.96 313.456 519.944 313.452 519.928 313.46C519.92 313.468 519.916 313.48 519.916 313.496V316.172C519.916 316.252 519.876 316.292 519.796 316.292H518.884C518.804 316.292 518.764 316.252 518.764 316.172V308.012C518.764 307.932 518.804 307.892 518.884 307.892H519.796C519.876 307.892 519.916 307.932 519.916 308.012V308.408C519.916 308.424 519.92 308.436 519.928 308.444C519.944 308.452 519.96 308.448 519.976 308.432C520.152 308.232 520.36 308.076 520.6 307.964C520.84 307.852 521.1 307.796 521.38 307.796C521.956 307.796 522.432 307.94 522.808 308.228C523.192 308.508 523.472 308.908 523.648 309.428ZM522.328 312.524C522.584 312.14 522.712 311.612 522.712 310.94C522.712 310.324 522.612 309.828 522.412 309.452C522.18 309.012 521.8 308.792 521.272 308.792C520.808 308.792 520.456 309.008 520.216 309.44C520.024 309.784 519.928 310.288 519.928 310.952C519.928 311.624 520.032 312.136 520.24 312.488C520.472 312.896 520.812 313.1 521.26 313.1C521.74 313.1 522.096 312.908 522.328 312.524ZM525.503 314C525.423 314 525.383 313.96 525.383 313.88V305.72C525.383 305.64 525.423 305.6 525.503 305.6H526.415C526.495 305.6 526.535 305.64 526.535 305.72V313.88C526.535 313.96 526.495 314 526.415 314H525.503ZM530.703 314.096C530.111 314.096 529.595 313.948 529.155 313.652C528.715 313.348 528.407 312.928 528.231 312.392C528.087 311.96 528.015 311.472 528.015 310.928C528.015 310.36 528.083 309.88 528.219 309.488C528.395 308.96 528.703 308.548 529.143 308.252C529.583 307.948 530.107 307.796 530.715 307.796C531.291 307.796 531.791 307.948 532.215 308.252C532.647 308.548 532.955 308.956 533.139 309.476C533.283 309.884 533.355 310.364 533.355 310.916C533.355 311.476 533.283 311.968 533.139 312.392C532.963 312.928 532.659 313.348 532.227 313.652C531.795 313.948 531.287 314.096 530.703 314.096ZM530.703 313.1C531.023 313.1 531.303 313.012 531.543 312.836C531.783 312.652 531.955 312.396 532.059 312.068C532.147 311.764 532.191 311.388 532.191 310.94C532.191 310.492 532.151 310.12 532.071 309.824C531.967 309.496 531.795 309.244 531.555 309.068C531.315 308.884 531.023 308.792 530.679 308.792C530.351 308.792 530.067 308.884 529.827 309.068C529.587 309.244 529.415 309.496 529.311 309.824C529.223 310.104 529.179 310.476 529.179 310.94C529.179 311.404 529.223 311.78 529.311 312.068C529.407 312.396 529.575 312.652 529.815 312.836C530.063 313.012 530.359 313.1 530.703 313.1ZM534.402 316.388C534.346 316.388 534.318 316.348 534.318 316.268V315.56C534.318 315.48 534.358 315.44 534.438 315.44H534.462C534.782 315.432 535.034 315.392 535.218 315.32C535.402 315.248 535.554 315.112 535.674 314.912C535.794 314.72 535.91 314.428 536.022 314.036C536.03 314.028 536.03 314.016 536.022 314C536.022 313.976 536.022 313.964 536.022 313.964L534.018 308.024L534.006 307.976C534.006 307.92 534.042 307.892 534.114 307.892H535.086C535.158 307.892 535.206 307.924 535.23 307.988L536.586 312.512C536.594 312.528 536.606 312.536 536.622 312.536C536.638 312.536 536.65 312.528 536.658 312.512L538.002 307.988C538.026 307.924 538.074 307.892 538.146 307.892H539.094C539.182 307.892 539.214 307.936 539.19 308.024L537.006 314.42C536.822 314.972 536.638 315.38 536.454 315.644C536.27 315.916 536.03 316.108 535.734 316.22C535.438 316.332 535.022 316.388 534.486 316.388H534.402Z" fill="white"/>
<rect x="349" y="240" width="200" height="30" rx="15" fill="#525252"/>
<path d="M415.7 260C415.628 260 415.584 259.968 415.568 259.904L413.312 251.732L413.3 251.696C413.3 251.632 413.34 251.6 413.42 251.6H414.392C414.464 251.6 414.508 251.636 414.524 251.708L416.096 257.684C416.104 257.7 416.112 257.708 416.12 257.708C416.136 257.708 416.148 257.7 416.156 257.684L417.644 251.708C417.66 251.636 417.704 251.6 417.776 251.6H418.724C418.796 251.6 418.84 251.636 418.856 251.708L420.428 257.696C420.436 257.712 420.444 257.72 420.452 257.72C420.46 257.72 420.468 257.712 420.476 257.696L422.06 251.708C422.076 251.636 422.12 251.6 422.192 251.6H423.104C423.144 251.6 423.172 251.612 423.188 251.636C423.212 251.66 423.22 251.692 423.212 251.732L421.04 259.892C421.024 259.964 420.98 260 420.908 260H419.984C419.912 260 419.868 259.964 419.852 259.892L418.28 253.7C418.272 253.676 418.264 253.664 418.256 253.664C418.248 253.664 418.24 253.676 418.232 253.7L416.708 259.892C416.7 259.964 416.656 260 416.576 260H415.7ZM426.911 253.832C427.167 253.832 427.399 253.884 427.607 253.988C427.663 254.012 427.683 254.06 427.667 254.132L427.475 255.032C427.467 255.104 427.419 255.128 427.331 255.104C427.195 255.048 427.035 255.02 426.851 255.02L426.683 255.032C426.307 255.048 425.995 255.18 425.747 255.428C425.507 255.668 425.387 255.984 425.387 256.376V259.88C425.387 259.96 425.347 260 425.267 260H424.355C424.275 260 424.235 259.96 424.235 259.88V254.012C424.235 253.932 424.275 253.892 424.355 253.892H425.267C425.347 253.892 425.387 253.932 425.387 254.012V254.648C425.387 254.672 425.391 254.688 425.399 254.696C425.415 254.696 425.427 254.688 425.435 254.672C425.795 254.112 426.287 253.832 426.911 253.832ZM429.384 252.932C429.16 252.932 428.976 252.86 428.832 252.716C428.688 252.572 428.616 252.388 428.616 252.164C428.616 251.94 428.688 251.756 428.832 251.612C428.976 251.468 429.16 251.396 429.384 251.396C429.608 251.396 429.792 251.468 429.936 251.612C430.08 251.756 430.152 251.94 430.152 252.164C430.152 252.388 430.08 252.572 429.936 252.716C429.792 252.86 429.608 252.932 429.384 252.932ZM428.904 259.988C428.824 259.988 428.784 259.948 428.784 259.868V254.012C428.784 253.932 428.824 253.892 428.904 253.892H429.816C429.896 253.892 429.936 253.932 429.936 254.012V259.868C429.936 259.948 429.896 259.988 429.816 259.988H428.904ZM434.758 254.72C434.758 254.8 434.718 254.84 434.638 254.84H433.342C433.31 254.84 433.294 254.856 433.294 254.888V258.068C433.294 258.404 433.37 258.648 433.522 258.8C433.674 258.944 433.91 259.016 434.23 259.016H434.578C434.658 259.016 434.698 259.056 434.698 259.136V259.88C434.698 259.96 434.658 260 434.578 260C434.322 260.016 434.138 260.024 434.026 260.024C433.418 260.024 432.958 259.916 432.646 259.7C432.342 259.476 432.19 259.068 432.19 258.476V254.888C432.19 254.856 432.174 254.84 432.142 254.84H431.41C431.33 254.84 431.29 254.8 431.29 254.72V254.012C431.29 253.932 431.33 253.892 431.41 253.892H432.142C432.174 253.892 432.19 253.876 432.19 253.844V252.428C432.19 252.348 432.23 252.308 432.31 252.308H433.174C433.254 252.308 433.294 252.348 433.294 252.428V253.844C433.294 253.876 433.31 253.892 433.342 253.892H434.638C434.718 253.892 434.758 253.932 434.758 254.012V254.72ZM439.188 254.72C439.188 254.8 439.148 254.84 439.068 254.84H437.772C437.74 254.84 437.724 254.856 437.724 254.888V258.068C437.724 258.404 437.8 258.648 437.952 258.8C438.104 258.944 438.34 259.016 438.66 259.016H439.008C439.088 259.016 439.128 259.056 439.128 259.136V259.88C439.128 259.96 439.088 260 439.008 260C438.752 260.016 438.568 260.024 438.456 260.024C437.848 260.024 437.388 259.916 437.076 259.7C436.772 259.476 436.62 259.068 436.62 258.476V254.888C436.62 254.856 436.604 254.84 436.572 254.84H435.84C435.76 254.84 435.72 254.8 435.72 254.72V254.012C435.72 253.932 435.76 253.892 435.84 253.892H436.572C436.604 253.892 436.62 253.876 436.62 253.844V252.428C436.62 252.348 436.66 252.308 436.74 252.308H437.604C437.684 252.308 437.724 252.348 437.724 252.428V253.844C437.724 253.876 437.74 253.892 437.772 253.892H439.068C439.148 253.892 439.188 253.932 439.188 254.012V254.72ZM441.302 252.932C441.078 252.932 440.894 252.86 440.75 252.716C440.606 252.572 440.534 252.388 440.534 252.164C440.534 251.94 440.606 251.756 440.75 251.612C440.894 251.468 441.078 251.396 441.302 251.396C441.526 251.396 441.71 251.468 441.854 251.612C441.998 251.756 442.07 251.94 442.07 252.164C442.07 252.388 441.998 252.572 441.854 252.716C441.71 252.86 441.526 252.932 441.302 252.932ZM440.822 259.988C440.742 259.988 440.702 259.948 440.702 259.868V254.012C440.702 253.932 440.742 253.892 440.822 253.892H441.734C441.814 253.892 441.854 253.932 441.854 254.012V259.868C441.854 259.948 441.814 259.988 441.734 259.988H440.822ZM446.388 253.808C447.044 253.808 447.564 254 447.948 254.384C448.332 254.76 448.524 255.272 448.524 255.92V259.88C448.524 259.96 448.484 260 448.404 260H447.492C447.412 260 447.372 259.96 447.372 259.88V256.148C447.372 255.748 447.256 255.424 447.024 255.176C446.792 254.928 446.484 254.804 446.1 254.804C445.724 254.804 445.416 254.928 445.176 255.176C444.936 255.424 444.816 255.744 444.816 256.136V259.88C444.816 259.96 444.776 260 444.696 260H443.784C443.704 260 443.664 259.96 443.664 259.88V254.012C443.664 253.932 443.704 253.892 443.784 253.892H444.696C444.776 253.892 444.816 253.932 444.816 254.012V254.444C444.816 254.46 444.82 254.472 444.828 254.48C444.844 254.488 444.856 254.484 444.864 254.468C445.208 254.028 445.716 253.808 446.388 253.808ZM453.924 254.012C453.924 253.932 453.964 253.892 454.044 253.892H454.956C455.036 253.892 455.076 253.932 455.076 254.012V259.688C455.076 260.656 454.8 261.348 454.248 261.764C453.704 262.18 452.972 262.388 452.052 262.388C451.924 262.388 451.724 262.38 451.452 262.364C451.372 262.356 451.332 262.312 451.332 262.232L451.368 261.404C451.368 261.372 451.38 261.344 451.404 261.32C451.428 261.296 451.46 261.288 451.5 261.296C451.612 261.304 451.776 261.308 451.992 261.308C452.672 261.308 453.164 261.18 453.468 260.924C453.772 260.676 453.924 260.252 453.924 259.652V259.436C453.924 259.42 453.916 259.408 453.9 259.4C453.892 259.392 453.88 259.396 453.864 259.412C453.528 259.804 453.036 260 452.388 260C451.868 260 451.396 259.864 450.972 259.592C450.556 259.32 450.268 258.92 450.108 258.392C450.004 258.04 449.952 257.552 449.952 256.928C449.952 256.264 450.012 255.752 450.132 255.392C450.284 254.912 450.552 254.528 450.936 254.24C451.328 253.944 451.788 253.796 452.316 253.796C452.972 253.796 453.488 253.996 453.864 254.396C453.88 254.412 453.892 254.42 453.9 254.42C453.916 254.412 453.924 254.4 453.924 254.384V254.012ZM453.852 258.044C453.876 257.916 453.892 257.78 453.9 257.636C453.916 257.492 453.924 257.252 453.924 256.916C453.924 256.58 453.916 256.344 453.9 256.208C453.892 256.064 453.872 255.928 453.84 255.8C453.776 255.504 453.632 255.264 453.408 255.08C453.184 254.888 452.904 254.792 452.568 254.792C452.232 254.792 451.952 254.888 451.728 255.08C451.504 255.264 451.344 255.504 451.248 255.8C451.16 256.04 451.116 256.412 451.116 256.916C451.116 257.468 451.156 257.844 451.236 258.044C451.316 258.34 451.472 258.584 451.704 258.776C451.944 258.96 452.232 259.052 452.568 259.052C452.92 259.052 453.204 258.96 453.42 258.776C453.644 258.584 453.788 258.34 453.852 258.044ZM461.534 260.096C460.926 260.096 460.406 259.944 459.974 259.64C459.542 259.328 459.246 258.908 459.086 258.38C458.966 258.012 458.906 257.528 458.906 256.928C458.906 256.376 458.966 255.892 459.086 255.476C459.246 254.964 459.542 254.556 459.974 254.252C460.414 253.948 460.934 253.796 461.534 253.796C462.134 253.796 462.658 253.948 463.106 254.252C463.554 254.556 463.846 254.94 463.982 255.404C464.03 255.532 464.062 255.664 464.078 255.8C464.078 255.864 464.042 255.904 463.97 255.92L463.07 256.052H463.046C462.99 256.052 462.95 256.016 462.926 255.944L462.89 255.752C462.826 255.48 462.67 255.252 462.422 255.068C462.174 254.884 461.874 254.792 461.522 254.792C461.178 254.792 460.886 254.884 460.646 255.068C460.406 255.252 460.25 255.496 460.178 255.8C460.106 256.088 460.07 256.468 460.07 256.94C460.07 257.404 460.106 257.78 460.178 258.068C460.258 258.388 460.414 258.64 460.646 258.824C460.886 259.008 461.178 259.1 461.522 259.1C461.874 259.1 462.174 259.008 462.422 258.824C462.678 258.64 462.838 258.4 462.902 258.104C462.91 258.096 462.91 258.088 462.902 258.08C462.902 258.064 462.906 258.052 462.914 258.044V257.996C462.938 257.932 462.982 257.908 463.046 257.924L463.946 258.068C464.01 258.084 464.042 258.116 464.042 258.164V258.212C464.042 258.284 464.022 258.372 463.982 258.476C463.846 258.964 463.554 259.356 463.106 259.652C462.658 259.948 462.134 260.096 461.534 260.096ZM467.852 260.096C467.26 260.096 466.744 259.948 466.304 259.652C465.864 259.348 465.556 258.928 465.38 258.392C465.236 257.96 465.164 257.472 465.164 256.928C465.164 256.36 465.232 255.88 465.368 255.488C465.544 254.96 465.852 254.548 466.292 254.252C466.732 253.948 467.256 253.796 467.864 253.796C468.44 253.796 468.94 253.948 469.364 254.252C469.796 254.548 470.104 254.956 470.288 255.476C470.432 255.884 470.504 256.364 470.504 256.916C470.504 257.476 470.432 257.968 470.288 258.392C470.112 258.928 469.808 259.348 469.376 259.652C468.944 259.948 468.436 260.096 467.852 260.096ZM467.852 259.1C468.172 259.1 468.452 259.012 468.692 258.836C468.932 258.652 469.104 258.396 469.208 258.068C469.296 257.764 469.34 257.388 469.34 256.94C469.34 256.492 469.3 256.12 469.22 255.824C469.116 255.496 468.944 255.244 468.704 255.068C468.464 254.884 468.172 254.792 467.828 254.792C467.5 254.792 467.216 254.884 466.976 255.068C466.736 255.244 466.564 255.496 466.46 255.824C466.372 256.104 466.328 256.476 466.328 256.94C466.328 257.404 466.372 257.78 466.46 258.068C466.556 258.396 466.724 258.652 466.964 258.836C467.212 259.012 467.508 259.1 467.852 259.1ZM475.804 251.72C475.804 251.64 475.844 251.6 475.924 251.6H476.836C476.916 251.6 476.956 251.64 476.956 251.72V259.88C476.956 259.96 476.916 260 476.836 260H475.924C475.844 260 475.804 259.96 475.804 259.88V259.484C475.804 259.468 475.796 259.456 475.78 259.448C475.772 259.44 475.76 259.444 475.744 259.46C475.568 259.66 475.36 259.816 475.12 259.928C474.88 260.04 474.62 260.096 474.34 260.096C473.764 260.096 473.284 259.956 472.9 259.676C472.524 259.388 472.248 258.984 472.072 258.464C471.92 258.04 471.844 257.528 471.844 256.928C471.844 256.368 471.908 255.884 472.036 255.476C472.204 254.948 472.48 254.536 472.864 254.24C473.248 253.944 473.74 253.796 474.34 253.796C474.612 253.796 474.868 253.852 475.108 253.964C475.356 254.068 475.568 254.22 475.744 254.42C475.76 254.436 475.772 254.44 475.78 254.432C475.796 254.424 475.804 254.412 475.804 254.396V251.72ZM475.504 258.452C475.688 258.116 475.78 257.612 475.78 256.94C475.78 256.268 475.68 255.756 475.48 255.404C475.248 254.996 474.908 254.792 474.46 254.792C473.98 254.792 473.624 254.984 473.392 255.368C473.136 255.768 473.008 256.296 473.008 256.952C473.008 257.568 473.108 258.064 473.308 258.44C473.54 258.88 473.92 259.1 474.448 259.1C474.912 259.1 475.264 258.884 475.504 258.452ZM483.589 256.184C483.621 256.512 483.633 256.88 483.625 257.288C483.625 257.368 483.585 257.408 483.505 257.408H479.677C479.645 257.408 479.629 257.424 479.629 257.456C479.629 257.728 479.653 257.936 479.701 258.08C479.789 258.4 479.965 258.652 480.229 258.836C480.501 259.012 480.841 259.1 481.249 259.1C481.841 259.1 482.297 258.856 482.617 258.368C482.657 258.288 482.709 258.276 482.773 258.332L483.457 258.788C483.513 258.836 483.525 258.888 483.493 258.944C483.269 259.304 482.949 259.588 482.533 259.796C482.125 260.004 481.661 260.108 481.141 260.108C480.557 260.108 480.065 259.98 479.665 259.724C479.265 259.468 478.965 259.104 478.765 258.632C478.573 258.16 478.477 257.588 478.477 256.916C478.477 256.332 478.521 255.888 478.609 255.584C478.753 255.032 479.041 254.596 479.473 254.276C479.905 253.956 480.429 253.796 481.045 253.796C481.853 253.796 482.457 254 482.857 254.408C483.257 254.808 483.501 255.4 483.589 256.184ZM481.045 254.792C480.701 254.792 480.417 254.88 480.193 255.056C479.969 255.224 479.817 255.452 479.737 255.74C479.681 255.916 479.645 256.14 479.629 256.412C479.629 256.444 479.645 256.46 479.677 256.46H482.425C482.457 256.46 482.473 256.444 482.473 256.412C482.457 256.148 482.433 255.952 482.401 255.824C482.321 255.512 482.161 255.264 481.921 255.08C481.689 254.888 481.397 254.792 481.045 254.792Z" fill="white"/>
<rect x="185" y="186" width="175" height="30" rx="15" fill="#525252"/>
<path d="M218.104 206C218.024 206 217.984 205.96 217.984 205.88V197.72C217.984 197.64 218.024 197.6 218.104 197.6H221.008C221.84 197.6 222.504 197.82 223 198.26C223.496 198.692 223.744 199.272 223.744 200V203.6C223.744 204.328 223.496 204.912 223 205.352C222.504 205.784 221.84 206 221.008 206H218.104ZM219.136 204.956C219.136 204.988 219.152 205.004 219.184 205.004H221.056C221.52 205.004 221.888 204.864 222.16 204.584C222.44 204.296 222.584 203.912 222.592 203.432V200.168C222.592 199.688 222.452 199.308 222.172 199.028C221.9 198.74 221.528 198.596 221.056 198.596H219.184C219.152 198.596 219.136 198.612 219.136 198.644V204.956ZM227.934 199.832C228.19 199.832 228.422 199.884 228.63 199.988C228.686 200.012 228.706 200.06 228.69 200.132L228.498 201.032C228.49 201.104 228.442 201.128 228.354 201.104C228.218 201.048 228.058 201.02 227.874 201.02L227.706 201.032C227.33 201.048 227.018 201.18 226.77 201.428C226.53 201.668 226.41 201.984 226.41 202.376V205.88C226.41 205.96 226.37 206 226.29 206H225.378C225.298 206 225.258 205.96 225.258 205.88V200.012C225.258 199.932 225.298 199.892 225.378 199.892H226.29C226.37 199.892 226.41 199.932 226.41 200.012V200.648C226.41 200.672 226.414 200.688 226.422 200.696C226.438 200.696 226.45 200.688 226.458 200.672C226.818 200.112 227.31 199.832 227.934 199.832ZM231.896 199.796C232.384 199.796 232.808 199.884 233.168 200.06C233.536 200.228 233.816 200.468 234.008 200.78C234.208 201.084 234.308 201.432 234.308 201.824V205.88C234.308 205.96 234.268 206 234.188 206H233.276C233.196 206 233.156 205.96 233.156 205.88V205.448C233.156 205.408 233.136 205.4 233.096 205.424C232.888 205.64 232.632 205.808 232.328 205.928C232.032 206.04 231.7 206.096 231.332 206.096C230.74 206.096 230.248 205.948 229.856 205.652C229.472 205.348 229.28 204.892 229.28 204.284C229.28 203.66 229.496 203.172 229.928 202.82C230.368 202.46 230.98 202.28 231.764 202.28H233.108C233.14 202.28 233.156 202.264 233.156 202.232V201.908C233.156 201.556 233.052 201.284 232.844 201.092C232.644 200.892 232.336 200.792 231.92 200.792C231.584 200.792 231.308 200.86 231.092 200.996C230.884 201.124 230.756 201.3 230.708 201.524C230.684 201.604 230.636 201.64 230.564 201.632L229.592 201.5C229.512 201.484 229.476 201.452 229.484 201.404C229.548 200.932 229.8 200.548 230.24 200.252C230.68 199.948 231.232 199.796 231.896 199.796ZM231.584 205.124C232.008 205.124 232.376 205.012 232.688 204.788C233 204.564 233.156 204.28 233.156 203.936V203.228C233.156 203.196 233.14 203.18 233.108 203.18H231.98C231.508 203.18 231.132 203.272 230.852 203.456C230.572 203.64 230.432 203.896 230.432 204.224C230.432 204.52 230.536 204.744 230.744 204.896C230.96 205.048 231.24 205.124 231.584 205.124ZM237.114 206C237.05 206 237.006 205.968 236.982 205.904L235.254 200.024L235.242 199.988C235.242 199.924 235.282 199.892 235.362 199.892H236.298C236.37 199.892 236.414 199.928 236.43 200L237.57 204.356C237.578 204.372 237.586 204.38 237.594 204.38C237.61 204.38 237.622 204.372 237.63 204.356L238.794 200C238.81 199.928 238.854 199.892 238.926 199.892H239.754C239.826 199.892 239.87 199.928 239.886 200L241.074 204.344C241.082 204.36 241.09 204.368 241.098 204.368C241.114 204.368 241.126 204.36 241.134 204.344L242.322 200C242.338 199.928 242.382 199.892 242.454 199.892L243.378 199.904C243.418 199.904 243.446 199.916 243.462 199.94C243.486 199.964 243.494 199.996 243.486 200.036L241.746 205.904C241.722 205.968 241.678 206 241.614 206H240.678C240.614 206 240.57 205.968 240.546 205.904L239.37 201.848C239.362 201.832 239.35 201.824 239.334 201.824C239.326 201.824 239.318 201.832 239.31 201.848L238.194 205.892C238.178 205.964 238.134 206 238.062 206H237.114ZM245.372 198.932C245.148 198.932 244.964 198.86 244.82 198.716C244.676 198.572 244.604 198.388 244.604 198.164C244.604 197.94 244.676 197.756 244.82 197.612C244.964 197.468 245.148 197.396 245.372 197.396C245.596 197.396 245.78 197.468 245.924 197.612C246.068 197.756 246.14 197.94 246.14 198.164C246.14 198.388 246.068 198.572 245.924 198.716C245.78 198.86 245.596 198.932 245.372 198.932ZM244.892 205.988C244.812 205.988 244.772 205.948 244.772 205.868V200.012C244.772 199.932 244.812 199.892 244.892 199.892H245.804C245.884 199.892 245.924 199.932 245.924 200.012V205.868C245.924 205.948 245.884 205.988 245.804 205.988H244.892ZM250.459 199.808C251.115 199.808 251.635 200 252.019 200.384C252.403 200.76 252.595 201.272 252.595 201.92V205.88C252.595 205.96 252.555 206 252.475 206H251.563C251.483 206 251.443 205.96 251.443 205.88V202.148C251.443 201.748 251.327 201.424 251.095 201.176C250.863 200.928 250.555 200.804 250.171 200.804C249.795 200.804 249.487 200.928 249.247 201.176C249.007 201.424 248.887 201.744 248.887 202.136V205.88C248.887 205.96 248.847 206 248.767 206H247.855C247.775 206 247.735 205.96 247.735 205.88V200.012C247.735 199.932 247.775 199.892 247.855 199.892H248.767C248.847 199.892 248.887 199.932 248.887 200.012V200.444C248.887 200.46 248.891 200.472 248.899 200.48C248.915 200.488 248.927 200.484 248.935 200.468C249.279 200.028 249.787 199.808 250.459 199.808ZM257.994 200.012C257.994 199.932 258.034 199.892 258.114 199.892H259.026C259.106 199.892 259.146 199.932 259.146 200.012V205.688C259.146 206.656 258.87 207.348 258.318 207.764C257.774 208.18 257.042 208.388 256.122 208.388C255.994 208.388 255.794 208.38 255.522 208.364C255.442 208.356 255.402 208.312 255.402 208.232L255.438 207.404C255.438 207.372 255.45 207.344 255.474 207.32C255.498 207.296 255.53 207.288 255.57 207.296C255.682 207.304 255.846 207.308 256.062 207.308C256.742 207.308 257.234 207.18 257.538 206.924C257.842 206.676 257.994 206.252 257.994 205.652V205.436C257.994 205.42 257.986 205.408 257.97 205.4C257.962 205.392 257.95 205.396 257.934 205.412C257.598 205.804 257.106 206 256.458 206C255.938 206 255.466 205.864 255.042 205.592C254.626 205.32 254.338 204.92 254.178 204.392C254.074 204.04 254.022 203.552 254.022 202.928C254.022 202.264 254.082 201.752 254.202 201.392C254.354 200.912 254.622 200.528 255.006 200.24C255.398 199.944 255.858 199.796 256.386 199.796C257.042 199.796 257.558 199.996 257.934 200.396C257.95 200.412 257.962 200.42 257.97 200.42C257.986 200.412 257.994 200.4 257.994 200.384V200.012ZM257.922 204.044C257.946 203.916 257.962 203.78 257.97 203.636C257.986 203.492 257.994 203.252 257.994 202.916C257.994 202.58 257.986 202.344 257.97 202.208C257.962 202.064 257.942 201.928 257.91 201.8C257.846 201.504 257.702 201.264 257.478 201.08C257.254 200.888 256.974 200.792 256.638 200.792C256.302 200.792 256.022 200.888 255.798 201.08C255.574 201.264 255.414 201.504 255.318 201.8C255.23 202.04 255.186 202.412 255.186 202.916C255.186 203.468 255.226 203.844 255.306 204.044C255.386 204.34 255.542 204.584 255.774 204.776C256.014 204.96 256.302 205.052 256.638 205.052C256.99 205.052 257.274 204.96 257.49 204.776C257.714 204.584 257.858 204.34 257.922 204.044ZM265.388 199.796C265.876 199.796 266.3 199.884 266.66 200.06C267.028 200.228 267.308 200.468 267.5 200.78C267.7 201.084 267.8 201.432 267.8 201.824V205.88C267.8 205.96 267.76 206 267.68 206H266.768C266.688 206 266.648 205.96 266.648 205.88V205.448C266.648 205.408 266.628 205.4 266.588 205.424C266.38 205.64 266.124 205.808 265.82 205.928C265.524 206.04 265.192 206.096 264.824 206.096C264.232 206.096 263.74 205.948 263.348 205.652C262.964 205.348 262.772 204.892 262.772 204.284C262.772 203.66 262.988 203.172 263.42 202.82C263.86 202.46 264.472 202.28 265.256 202.28H266.6C266.632 202.28 266.648 202.264 266.648 202.232V201.908C266.648 201.556 266.544 201.284 266.336 201.092C266.136 200.892 265.828 200.792 265.412 200.792C265.076 200.792 264.8 200.86 264.584 200.996C264.376 201.124 264.248 201.3 264.2 201.524C264.176 201.604 264.128 201.64 264.056 201.632L263.084 201.5C263.004 201.484 262.968 201.452 262.976 201.404C263.04 200.932 263.292 200.548 263.732 200.252C264.172 199.948 264.724 199.796 265.388 199.796ZM265.076 205.124C265.5 205.124 265.868 205.012 266.18 204.788C266.492 204.564 266.648 204.28 266.648 203.936V203.228C266.648 203.196 266.632 203.18 266.6 203.18H265.472C265 203.18 264.624 203.272 264.344 203.456C264.064 203.64 263.924 203.896 263.924 204.224C263.924 204.52 264.028 204.744 264.236 204.896C264.452 205.048 264.732 205.124 265.076 205.124ZM272.032 199.832C272.288 199.832 272.52 199.884 272.728 199.988C272.784 200.012 272.804 200.06 272.788 200.132L272.596 201.032C272.588 201.104 272.54 201.128 272.452 201.104C272.316 201.048 272.156 201.02 271.972 201.02L271.804 201.032C271.428 201.048 271.116 201.18 270.868 201.428C270.628 201.668 270.508 201.984 270.508 202.376V205.88C270.508 205.96 270.468 206 270.388 206H269.476C269.396 206 269.356 205.96 269.356 205.88V200.012C269.356 199.932 269.396 199.892 269.476 199.892H270.388C270.468 199.892 270.508 199.932 270.508 200.012V200.648C270.508 200.672 270.512 200.688 270.52 200.696C270.536 200.696 270.548 200.688 270.556 200.672C270.916 200.112 271.408 199.832 272.032 199.832ZM276.163 206.096C275.555 206.096 275.035 205.944 274.603 205.64C274.171 205.328 273.875 204.908 273.715 204.38C273.595 204.012 273.535 203.528 273.535 202.928C273.535 202.376 273.595 201.892 273.715 201.476C273.875 200.964 274.171 200.556 274.603 200.252C275.043 199.948 275.563 199.796 276.163 199.796C276.763 199.796 277.287 199.948 277.735 200.252C278.183 200.556 278.475 200.94 278.611 201.404C278.659 201.532 278.691 201.664 278.707 201.8C278.707 201.864 278.671 201.904 278.599 201.92L277.699 202.052H277.675C277.619 202.052 277.579 202.016 277.555 201.944L277.519 201.752C277.455 201.48 277.299 201.252 277.051 201.068C276.803 200.884 276.503 200.792 276.151 200.792C275.807 200.792 275.515 200.884 275.275 201.068C275.035 201.252 274.879 201.496 274.807 201.8C274.735 202.088 274.699 202.468 274.699 202.94C274.699 203.404 274.735 203.78 274.807 204.068C274.887 204.388 275.043 204.64 275.275 204.824C275.515 205.008 275.807 205.1 276.151 205.1C276.503 205.1 276.803 205.008 277.051 204.824C277.307 204.64 277.467 204.4 277.531 204.104C277.539 204.096 277.539 204.088 277.531 204.08C277.531 204.064 277.535 204.052 277.543 204.044V203.996C277.567 203.932 277.611 203.908 277.675 203.924L278.575 204.068C278.639 204.084 278.671 204.116 278.671 204.164V204.212C278.671 204.284 278.651 204.372 278.611 204.476C278.475 204.964 278.183 205.356 277.735 205.652C277.287 205.948 276.763 206.096 276.163 206.096ZM282.755 199.808C283.411 199.808 283.931 200 284.315 200.384C284.699 200.76 284.891 201.272 284.891 201.92V205.88C284.891 205.96 284.851 206 284.771 206H283.859C283.779 206 283.739 205.96 283.739 205.88V202.148C283.739 201.748 283.623 201.424 283.391 201.176C283.159 200.928 282.851 200.804 282.467 200.804C282.091 200.804 281.783 200.928 281.543 201.176C281.303 201.424 281.183 201.744 281.183 202.136V205.88C281.183 205.96 281.143 206 281.063 206H280.151C280.071 206 280.031 205.96 280.031 205.88V197.72C280.031 197.64 280.071 197.6 280.151 197.6H281.063C281.143 197.6 281.183 197.64 281.183 197.72V200.444C281.183 200.46 281.187 200.472 281.195 200.48C281.211 200.488 281.223 200.484 281.231 200.468C281.575 200.028 282.083 199.808 282.755 199.808ZM287.231 198.932C287.007 198.932 286.823 198.86 286.679 198.716C286.535 198.572 286.463 198.388 286.463 198.164C286.463 197.94 286.535 197.756 286.679 197.612C286.823 197.468 287.007 197.396 287.231 197.396C287.455 197.396 287.639 197.468 287.783 197.612C287.927 197.756 287.999 197.94 287.999 198.164C287.999 198.388 287.927 198.572 287.783 198.716C287.639 198.86 287.455 198.932 287.231 198.932ZM286.751 205.988C286.671 205.988 286.631 205.948 286.631 205.868V200.012C286.631 199.932 286.671 199.892 286.751 199.892H287.663C287.743 199.892 287.783 199.932 287.783 200.012V205.868C287.783 205.948 287.743 205.988 287.663 205.988H286.751ZM292.606 200.72C292.606 200.8 292.566 200.84 292.486 200.84H291.19C291.158 200.84 291.142 200.856 291.142 200.888V204.068C291.142 204.404 291.218 204.648 291.37 204.8C291.522 204.944 291.758 205.016 292.078 205.016H292.426C292.506 205.016 292.546 205.056 292.546 205.136V205.88C292.546 205.96 292.506 206 292.426 206C292.17 206.016 291.986 206.024 291.874 206.024C291.266 206.024 290.806 205.916 290.494 205.7C290.19 205.476 290.038 205.068 290.038 204.476V200.888C290.038 200.856 290.022 200.84 289.99 200.84H289.258C289.178 200.84 289.138 200.8 289.138 200.72V200.012C289.138 199.932 289.178 199.892 289.258 199.892H289.99C290.022 199.892 290.038 199.876 290.038 199.844V198.428C290.038 198.348 290.078 198.308 290.158 198.308H291.022C291.102 198.308 291.142 198.348 291.142 198.428V199.844C291.142 199.876 291.158 199.892 291.19 199.892H292.486C292.566 199.892 292.606 199.932 292.606 200.012V200.72ZM298.827 202.184C298.859 202.512 298.871 202.88 298.863 203.288C298.863 203.368 298.823 203.408 298.743 203.408H294.915C294.883 203.408 294.867 203.424 294.867 203.456C294.867 203.728 294.891 203.936 294.939 204.08C295.027 204.4 295.203 204.652 295.467 204.836C295.739 205.012 296.079 205.1 296.487 205.1C297.079 205.1 297.535 204.856 297.855 204.368C297.895 204.288 297.947 204.276 298.011 204.332L298.695 204.788C298.751 204.836 298.763 204.888 298.731 204.944C298.507 205.304 298.187 205.588 297.771 205.796C297.363 206.004 296.899 206.108 296.379 206.108C295.795 206.108 295.303 205.98 294.903 205.724C294.503 205.468 294.203 205.104 294.003 204.632C293.811 204.16 293.715 203.588 293.715 202.916C293.715 202.332 293.759 201.888 293.847 201.584C293.991 201.032 294.279 200.596 294.711 200.276C295.143 199.956 295.667 199.796 296.283 199.796C297.091 199.796 297.695 200 298.095 200.408C298.495 200.808 298.739 201.4 298.827 202.184ZM296.283 200.792C295.939 200.792 295.655 200.88 295.431 201.056C295.207 201.224 295.055 201.452 294.975 201.74C294.919 201.916 294.883 202.14 294.867 202.412C294.867 202.444 294.883 202.46 294.915 202.46H297.663C297.695 202.46 297.711 202.444 297.711 202.412C297.695 202.148 297.671 201.952 297.639 201.824C297.559 201.512 297.399 201.264 297.159 201.08C296.927 200.888 296.635 200.792 296.283 200.792ZM302.765 206.096C302.157 206.096 301.637 205.944 301.205 205.64C300.773 205.328 300.477 204.908 300.317 204.38C300.197 204.012 300.137 203.528 300.137 202.928C300.137 202.376 300.197 201.892 300.317 201.476C300.477 200.964 300.773 200.556 301.205 200.252C301.645 199.948 302.165 199.796 302.765 199.796C303.365 199.796 303.889 199.948 304.337 200.252C304.785 200.556 305.077 200.94 305.213 201.404C305.261 201.532 305.293 201.664 305.309 201.8C305.309 201.864 305.273 201.904 305.201 201.92L304.301 202.052H304.277C304.221 202.052 304.181 202.016 304.157 201.944L304.121 201.752C304.057 201.48 303.901 201.252 303.653 201.068C303.405 200.884 303.105 200.792 302.753 200.792C302.409 200.792 302.117 200.884 301.877 201.068C301.637 201.252 301.481 201.496 301.409 201.8C301.337 202.088 301.301 202.468 301.301 202.94C301.301 203.404 301.337 203.78 301.409 204.068C301.489 204.388 301.645 204.64 301.877 204.824C302.117 205.008 302.409 205.1 302.753 205.1C303.105 205.1 303.405 205.008 303.653 204.824C303.909 204.64 304.069 204.4 304.133 204.104C304.141 204.096 304.141 204.088 304.133 204.08C304.133 204.064 304.137 204.052 304.145 204.044V203.996C304.169 203.932 304.213 203.908 304.277 203.924L305.177 204.068C305.241 204.084 305.273 204.116 305.273 204.164V204.212C305.273 204.284 305.253 204.372 305.213 204.476C305.077 204.964 304.785 205.356 304.337 205.652C303.889 205.948 303.365 206.096 302.765 206.096ZM309.645 200.72C309.645 200.8 309.605 200.84 309.525 200.84H308.229C308.197 200.84 308.181 200.856 308.181 200.888V204.068C308.181 204.404 308.257 204.648 308.409 204.8C308.561 204.944 308.797 205.016 309.117 205.016H309.465C309.545 205.016 309.585 205.056 309.585 205.136V205.88C309.585 205.96 309.545 206 309.465 206C309.209 206.016 309.025 206.024 308.913 206.024C308.305 206.024 307.845 205.916 307.533 205.7C307.229 205.476 307.077 205.068 307.077 204.476V200.888C307.077 200.856 307.061 200.84 307.029 200.84H306.297C306.217 200.84 306.177 200.8 306.177 200.72V200.012C306.177 199.932 306.217 199.892 306.297 199.892H307.029C307.061 199.892 307.077 199.876 307.077 199.844V198.428C307.077 198.348 307.117 198.308 307.197 198.308H308.061C308.141 198.308 308.181 198.348 308.181 198.428V199.844C308.181 199.876 308.197 199.892 308.229 199.892H309.525C309.605 199.892 309.645 199.932 309.645 200.012V200.72ZM314.699 200.012C314.699 199.932 314.739 199.892 314.819 199.892H315.719C315.799 199.892 315.839 199.932 315.839 200.012V205.88C315.839 205.96 315.799 206 315.719 206H314.819C314.739 206 314.699 205.96 314.699 205.88V205.436C314.699 205.42 314.691 205.412 314.675 205.412C314.667 205.404 314.655 205.408 314.639 205.424C314.319 205.864 313.827 206.084 313.163 206.084C312.771 206.084 312.407 206.008 312.071 205.856C311.743 205.704 311.479 205.48 311.279 205.184C311.079 204.888 310.979 204.528 310.979 204.104V200.012C310.979 199.932 311.019 199.892 311.099 199.892H311.999C312.079 199.892 312.119 199.932 312.119 200.012V203.744C312.119 204.16 312.227 204.488 312.443 204.728C312.667 204.968 312.979 205.088 313.379 205.088C313.779 205.088 314.099 204.968 314.339 204.728C314.579 204.48 314.699 204.152 314.699 203.744V200.012ZM320.196 199.832C320.452 199.832 320.684 199.884 320.892 199.988C320.948 200.012 320.968 200.06 320.952 200.132L320.76 201.032C320.752 201.104 320.704 201.128 320.616 201.104C320.48 201.048 320.32 201.02 320.136 201.02L319.968 201.032C319.592 201.048 319.28 201.18 319.032 201.428C318.792 201.668 318.672 201.984 318.672 202.376V205.88C318.672 205.96 318.632 206 318.552 206H317.64C317.56 206 317.52 205.96 317.52 205.88V200.012C317.52 199.932 317.56 199.892 317.64 199.892H318.552C318.632 199.892 318.672 199.932 318.672 200.012V200.648C318.672 200.672 318.676 200.688 318.684 200.696C318.7 200.696 318.712 200.688 318.72 200.672C319.08 200.112 319.572 199.832 320.196 199.832ZM326.823 202.184C326.855 202.512 326.867 202.88 326.859 203.288C326.859 203.368 326.819 203.408 326.739 203.408H322.911C322.879 203.408 322.863 203.424 322.863 203.456C322.863 203.728 322.887 203.936 322.935 204.08C323.023 204.4 323.199 204.652 323.463 204.836C323.735 205.012 324.075 205.1 324.483 205.1C325.075 205.1 325.531 204.856 325.851 204.368C325.891 204.288 325.943 204.276 326.007 204.332L326.691 204.788C326.747 204.836 326.759 204.888 326.727 204.944C326.503 205.304 326.183 205.588 325.767 205.796C325.359 206.004 324.895 206.108 324.375 206.108C323.791 206.108 323.299 205.98 322.899 205.724C322.499 205.468 322.199 205.104 321.999 204.632C321.807 204.16 321.711 203.588 321.711 202.916C321.711 202.332 321.755 201.888 321.843 201.584C321.987 201.032 322.275 200.596 322.707 200.276C323.139 199.956 323.663 199.796 324.279 199.796C325.087 199.796 325.691 200 326.091 200.408C326.491 200.808 326.735 201.4 326.823 202.184ZM324.279 200.792C323.935 200.792 323.651 200.88 323.427 201.056C323.203 201.224 323.051 201.452 322.971 201.74C322.915 201.916 322.879 202.14 322.863 202.412C322.863 202.444 322.879 202.46 322.911 202.46H325.659C325.691 202.46 325.707 202.444 325.707 202.412C325.691 202.148 325.667 201.952 325.635 201.824C325.555 201.512 325.395 201.264 325.155 201.08C324.923 200.888 324.631 200.792 324.279 200.792Z" fill="white"/>
<rect x="58" y="132" width="302" height="30" rx="15" fill="#525252"/>
<path d="M190.272 143.588C190.76 143.588 191.188 143.692 191.556 143.9C191.932 144.1 192.22 144.384 192.42 144.752C192.628 145.12 192.732 145.544 192.732 146.024C192.732 146.504 192.628 146.924 192.42 147.284C192.212 147.644 191.916 147.924 191.532 148.124C191.156 148.324 190.72 148.424 190.224 148.424H188.112C188.08 148.424 188.064 148.44 188.064 148.472V151.88C188.064 151.96 188.024 152 187.944 152H187.032C186.952 152 186.912 151.96 186.912 151.88V143.708C186.912 143.628 186.952 143.588 187.032 143.588H190.272ZM190.116 147.488C190.556 147.488 190.908 147.356 191.172 147.092C191.444 146.828 191.58 146.48 191.58 146.048C191.58 145.608 191.444 145.256 191.172 144.992C190.908 144.72 190.556 144.584 190.116 144.584H188.112C188.08 144.584 188.064 144.6 188.064 144.632V147.44C188.064 147.472 188.08 147.488 188.112 147.488H190.116ZM194.073 152C193.993 152 193.953 151.96 193.953 151.88V143.72C193.953 143.64 193.993 143.6 194.073 143.6H194.985C195.065 143.6 195.105 143.64 195.105 143.72V151.88C195.105 151.96 195.065 152 194.985 152H194.073ZM199.01 145.796C199.498 145.796 199.922 145.884 200.282 146.06C200.65 146.228 200.93 146.468 201.122 146.78C201.322 147.084 201.422 147.432 201.422 147.824V151.88C201.422 151.96 201.382 152 201.302 152H200.39C200.31 152 200.27 151.96 200.27 151.88V151.448C200.27 151.408 200.25 151.4 200.21 151.424C200.002 151.64 199.746 151.808 199.442 151.928C199.146 152.04 198.814 152.096 198.446 152.096C197.854 152.096 197.362 151.948 196.97 151.652C196.586 151.348 196.394 150.892 196.394 150.284C196.394 149.66 196.61 149.172 197.042 148.82C197.482 148.46 198.094 148.28 198.878 148.28H200.222C200.254 148.28 200.27 148.264 200.27 148.232V147.908C200.27 147.556 200.166 147.284 199.958 147.092C199.758 146.892 199.45 146.792 199.034 146.792C198.698 146.792 198.422 146.86 198.206 146.996C197.998 147.124 197.87 147.3 197.822 147.524C197.798 147.604 197.75 147.64 197.678 147.632L196.706 147.5C196.626 147.484 196.59 147.452 196.598 147.404C196.662 146.932 196.914 146.548 197.354 146.252C197.794 145.948 198.346 145.796 199.01 145.796ZM198.698 151.124C199.122 151.124 199.49 151.012 199.802 150.788C200.114 150.564 200.27 150.28 200.27 149.936V149.228C200.27 149.196 200.254 149.18 200.222 149.18H199.094C198.622 149.18 198.246 149.272 197.966 149.456C197.686 149.64 197.546 149.896 197.546 150.224C197.546 150.52 197.65 150.744 197.858 150.896C198.074 151.048 198.354 151.124 198.698 151.124ZM205.701 145.808C206.357 145.808 206.877 146 207.261 146.384C207.645 146.76 207.837 147.272 207.837 147.92V151.88C207.837 151.96 207.797 152 207.717 152H206.805C206.725 152 206.685 151.96 206.685 151.88V148.148C206.685 147.748 206.569 147.424 206.337 147.176C206.105 146.928 205.797 146.804 205.413 146.804C205.037 146.804 204.729 146.928 204.489 147.176C204.249 147.424 204.129 147.744 204.129 148.136V151.88C204.129 151.96 204.089 152 204.009 152H203.097C203.017 152 202.977 151.96 202.977 151.88V146.012C202.977 145.932 203.017 145.892 203.097 145.892H204.009C204.089 145.892 204.129 145.932 204.129 146.012V146.444C204.129 146.46 204.133 146.472 204.141 146.48C204.157 146.488 204.169 146.484 204.177 146.468C204.521 146.028 205.029 145.808 205.701 145.808ZM212.205 145.808C212.861 145.808 213.381 146 213.765 146.384C214.149 146.76 214.341 147.272 214.341 147.92V151.88C214.341 151.96 214.301 152 214.221 152H213.309C213.229 152 213.189 151.96 213.189 151.88V148.148C213.189 147.748 213.073 147.424 212.841 147.176C212.609 146.928 212.301 146.804 211.917 146.804C211.541 146.804 211.233 146.928 210.993 147.176C210.753 147.424 210.633 147.744 210.633 148.136V151.88C210.633 151.96 210.593 152 210.513 152H209.601C209.521 152 209.481 151.96 209.481 151.88V146.012C209.481 145.932 209.521 145.892 209.601 145.892H210.513C210.593 145.892 210.633 145.932 210.633 146.012V146.444C210.633 146.46 210.637 146.472 210.645 146.48C210.661 146.488 210.673 146.484 210.681 146.468C211.025 146.028 211.533 145.808 212.205 145.808ZM216.681 144.932C216.457 144.932 216.273 144.86 216.129 144.716C215.985 144.572 215.913 144.388 215.913 144.164C215.913 143.94 215.985 143.756 216.129 143.612C216.273 143.468 216.457 143.396 216.681 143.396C216.905 143.396 217.089 143.468 217.233 143.612C217.377 143.756 217.449 143.94 217.449 144.164C217.449 144.388 217.377 144.572 217.233 144.716C217.089 144.86 216.905 144.932 216.681 144.932ZM216.201 151.988C216.121 151.988 216.081 151.948 216.081 151.868V146.012C216.081 145.932 216.121 145.892 216.201 145.892H217.113C217.193 145.892 217.233 145.932 217.233 146.012V151.868C217.233 151.948 217.193 151.988 217.113 151.988H216.201ZM221.767 145.808C222.423 145.808 222.943 146 223.327 146.384C223.711 146.76 223.903 147.272 223.903 147.92V151.88C223.903 151.96 223.863 152 223.783 152H222.871C222.791 152 222.751 151.96 222.751 151.88V148.148C222.751 147.748 222.635 147.424 222.403 147.176C222.171 146.928 221.863 146.804 221.479 146.804C221.103 146.804 220.795 146.928 220.555 147.176C220.315 147.424 220.195 147.744 220.195 148.136V151.88C220.195 151.96 220.155 152 220.075 152H219.163C219.083 152 219.043 151.96 219.043 151.88V146.012C219.043 145.932 219.083 145.892 219.163 145.892H220.075C220.155 145.892 220.195 145.932 220.195 146.012V146.444C220.195 146.46 220.199 146.472 220.207 146.48C220.223 146.488 220.235 146.484 220.243 146.468C220.587 146.028 221.095 145.808 221.767 145.808ZM229.303 146.012C229.303 145.932 229.343 145.892 229.423 145.892H230.335C230.415 145.892 230.455 145.932 230.455 146.012V151.688C230.455 152.656 230.179 153.348 229.627 153.764C229.083 154.18 228.351 154.388 227.431 154.388C227.303 154.388 227.103 154.38 226.831 154.364C226.751 154.356 226.711 154.312 226.711 154.232L226.747 153.404C226.747 153.372 226.759 153.344 226.783 153.32C226.807 153.296 226.839 153.288 226.879 153.296C226.991 153.304 227.155 153.308 227.371 153.308C228.051 153.308 228.543 153.18 228.847 152.924C229.151 152.676 229.303 152.252 229.303 151.652V151.436C229.303 151.42 229.295 151.408 229.279 151.4C229.271 151.392 229.259 151.396 229.243 151.412C228.907 151.804 228.415 152 227.767 152C227.247 152 226.775 151.864 226.351 151.592C225.935 151.32 225.647 150.92 225.487 150.392C225.383 150.04 225.331 149.552 225.331 148.928C225.331 148.264 225.391 147.752 225.511 147.392C225.663 146.912 225.931 146.528 226.315 146.24C226.707 145.944 227.167 145.796 227.695 145.796C228.351 145.796 228.867 145.996 229.243 146.396C229.259 146.412 229.271 146.42 229.279 146.42C229.295 146.412 229.303 146.4 229.303 146.384V146.012ZM229.231 150.044C229.255 149.916 229.271 149.78 229.279 149.636C229.295 149.492 229.303 149.252 229.303 148.916C229.303 148.58 229.295 148.344 229.279 148.208C229.271 148.064 229.251 147.928 229.219 147.8C229.155 147.504 229.011 147.264 228.787 147.08C228.563 146.888 228.283 146.792 227.947 146.792C227.611 146.792 227.331 146.888 227.107 147.08C226.883 147.264 226.723 147.504 226.627 147.8C226.539 148.04 226.495 148.412 226.495 148.916C226.495 149.468 226.535 149.844 226.615 150.044C226.695 150.34 226.851 150.584 227.083 150.776C227.323 150.96 227.611 151.052 227.947 151.052C228.299 151.052 228.583 150.96 228.799 150.776C229.023 150.584 229.167 150.34 229.231 150.044Z" fill="white"/>
<rect x="58" y="78" width="144" height="30" rx="15" fill="#525252"/>
<path d="M112.42 89.672C112.46 89.624 112.508 89.6 112.564 89.6H113.476C113.556 89.6 113.596 89.64 113.596 89.72V97.88C113.596 97.96 113.556 98 113.476 98H112.564C112.484 98 112.444 97.96 112.444 97.88V91.736C112.444 91.712 112.436 91.696 112.42 91.688C112.404 91.68 112.392 91.688 112.384 91.712L110.668 94.328C110.636 94.376 110.588 94.4 110.524 94.4H110.068C110.012 94.4 109.964 94.376 109.924 94.328L108.196 91.736C108.188 91.712 108.176 91.704 108.16 91.712C108.144 91.72 108.136 91.736 108.136 91.76V97.88C108.136 97.96 108.096 98 108.016 98H107.104C107.024 98 106.984 97.96 106.984 97.88V89.72C106.984 89.64 107.024 89.6 107.104 89.6H108.016C108.08 89.6 108.128 89.624 108.16 89.672L110.26 92.816C110.268 92.824 110.28 92.828 110.296 92.828C110.312 92.828 110.324 92.824 110.332 92.816L112.42 89.672ZM120.362 94.184C120.394 94.512 120.406 94.88 120.398 95.288C120.398 95.368 120.358 95.408 120.278 95.408H116.45C116.418 95.408 116.402 95.424 116.402 95.456C116.402 95.728 116.426 95.936 116.474 96.08C116.562 96.4 116.738 96.652 117.002 96.836C117.274 97.012 117.614 97.1 118.022 97.1C118.614 97.1 119.07 96.856 119.39 96.368C119.43 96.288 119.482 96.276 119.546 96.332L120.23 96.788C120.286 96.836 120.298 96.888 120.266 96.944C120.042 97.304 119.722 97.588 119.306 97.796C118.898 98.004 118.434 98.108 117.914 98.108C117.33 98.108 116.838 97.98 116.438 97.724C116.038 97.468 115.738 97.104 115.538 96.632C115.346 96.16 115.25 95.588 115.25 94.916C115.25 94.332 115.294 93.888 115.382 93.584C115.526 93.032 115.814 92.596 116.246 92.276C116.678 91.956 117.202 91.796 117.818 91.796C118.626 91.796 119.23 92 119.63 92.408C120.03 92.808 120.274 93.4 120.362 94.184ZM117.818 92.792C117.474 92.792 117.19 92.88 116.966 93.056C116.742 93.224 116.59 93.452 116.51 93.74C116.454 93.916 116.418 94.14 116.402 94.412C116.402 94.444 116.418 94.46 116.45 94.46H119.198C119.23 94.46 119.246 94.444 119.246 94.412C119.23 94.148 119.206 93.952 119.174 93.824C119.094 93.512 118.934 93.264 118.694 93.08C118.462 92.888 118.17 92.792 117.818 92.792ZM126.796 94.184C126.828 94.512 126.84 94.88 126.832 95.288C126.832 95.368 126.792 95.408 126.712 95.408H122.884C122.852 95.408 122.836 95.424 122.836 95.456C122.836 95.728 122.86 95.936 122.908 96.08C122.996 96.4 123.172 96.652 123.436 96.836C123.708 97.012 124.048 97.1 124.456 97.1C125.048 97.1 125.504 96.856 125.824 96.368C125.864 96.288 125.916 96.276 125.98 96.332L126.664 96.788C126.72 96.836 126.732 96.888 126.7 96.944C126.476 97.304 126.156 97.588 125.74 97.796C125.332 98.004 124.868 98.108 124.348 98.108C123.764 98.108 123.272 97.98 122.872 97.724C122.472 97.468 122.172 97.104 121.972 96.632C121.78 96.16 121.684 95.588 121.684 94.916C121.684 94.332 121.728 93.888 121.816 93.584C121.96 93.032 122.248 92.596 122.68 92.276C123.112 91.956 123.636 91.796 124.252 91.796C125.06 91.796 125.664 92 126.064 92.408C126.464 92.808 126.708 93.4 126.796 94.184ZM124.252 92.792C123.908 92.792 123.624 92.88 123.4 93.056C123.176 93.224 123.024 93.452 122.944 93.74C122.888 93.916 122.852 94.14 122.836 94.412C122.836 94.444 122.852 94.46 122.884 94.46H125.632C125.664 94.46 125.68 94.444 125.68 94.412C125.664 94.148 125.64 93.952 125.608 93.824C125.528 93.512 125.368 93.264 125.128 93.08C124.896 92.888 124.604 92.792 124.252 92.792ZM131.204 92.72C131.204 92.8 131.164 92.84 131.084 92.84H129.788C129.756 92.84 129.74 92.856 129.74 92.888V96.068C129.74 96.404 129.816 96.648 129.968 96.8C130.12 96.944 130.356 97.016 130.676 97.016H131.024C131.104 97.016 131.144 97.056 131.144 97.136V97.88C131.144 97.96 131.104 98 131.024 98C130.768 98.016 130.584 98.024 130.472 98.024C129.864 98.024 129.404 97.916 129.092 97.7C128.788 97.476 128.636 97.068 128.636 96.476V92.888C128.636 92.856 128.62 92.84 128.588 92.84H127.856C127.776 92.84 127.736 92.8 127.736 92.72V92.012C127.736 91.932 127.776 91.892 127.856 91.892H128.588C128.62 91.892 128.636 91.876 128.636 91.844V90.428C128.636 90.348 128.676 90.308 128.756 90.308H129.62C129.7 90.308 129.74 90.348 129.74 90.428V91.844C129.74 91.876 129.756 91.892 129.788 91.892H131.084C131.164 91.892 131.204 91.932 131.204 92.012V92.72ZM133.317 90.932C133.093 90.932 132.909 90.86 132.765 90.716C132.621 90.572 132.549 90.388 132.549 90.164C132.549 89.94 132.621 89.756 132.765 89.612C132.909 89.468 133.093 89.396 133.317 89.396C133.541 89.396 133.725 89.468 133.869 89.612C134.013 89.756 134.085 89.94 134.085 90.164C134.085 90.388 134.013 90.572 133.869 90.716C133.725 90.86 133.541 90.932 133.317 90.932ZM132.837 97.988C132.757 97.988 132.717 97.948 132.717 97.868V92.012C132.717 91.932 132.757 91.892 132.837 91.892H133.749C133.829 91.892 133.869 91.932 133.869 92.012V97.868C133.869 97.948 133.829 97.988 133.749 97.988H132.837ZM138.404 91.808C139.06 91.808 139.58 92 139.964 92.384C140.348 92.76 140.54 93.272 140.54 93.92V97.88C140.54 97.96 140.5 98 140.42 98H139.508C139.428 98 139.388 97.96 139.388 97.88V94.148C139.388 93.748 139.272 93.424 139.04 93.176C138.808 92.928 138.5 92.804 138.116 92.804C137.74 92.804 137.432 92.928 137.192 93.176C136.952 93.424 136.832 93.744 136.832 94.136V97.88C136.832 97.96 136.792 98 136.712 98H135.8C135.72 98 135.68 97.96 135.68 97.88V92.012C135.68 91.932 135.72 91.892 135.8 91.892H136.712C136.792 91.892 136.832 91.932 136.832 92.012V92.444C136.832 92.46 136.836 92.472 136.844 92.48C136.86 92.488 136.872 92.484 136.88 92.468C137.224 92.028 137.732 91.808 138.404 91.808ZM145.94 92.012C145.94 91.932 145.98 91.892 146.06 91.892H146.972C147.052 91.892 147.092 91.932 147.092 92.012V97.688C147.092 98.656 146.816 99.348 146.264 99.764C145.72 100.18 144.988 100.388 144.068 100.388C143.94 100.388 143.74 100.38 143.468 100.364C143.388 100.356 143.348 100.312 143.348 100.232L143.384 99.404C143.384 99.372 143.396 99.344 143.42 99.32C143.444 99.296 143.476 99.288 143.516 99.296C143.628 99.304 143.792 99.308 144.008 99.308C144.688 99.308 145.18 99.18 145.484 98.924C145.788 98.676 145.94 98.252 145.94 97.652V97.436C145.94 97.42 145.932 97.408 145.916 97.4C145.908 97.392 145.896 97.396 145.88 97.412C145.544 97.804 145.052 98 144.404 98C143.884 98 143.412 97.864 142.988 97.592C142.572 97.32 142.284 96.92 142.124 96.392C142.02 96.04 141.968 95.552 141.968 94.928C141.968 94.264 142.028 93.752 142.148 93.392C142.3 92.912 142.568 92.528 142.952 92.24C143.344 91.944 143.804 91.796 144.332 91.796C144.988 91.796 145.504 91.996 145.88 92.396C145.896 92.412 145.908 92.42 145.916 92.42C145.932 92.412 145.94 92.4 145.94 92.384V92.012ZM145.868 96.044C145.892 95.916 145.908 95.78 145.916 95.636C145.932 95.492 145.94 95.252 145.94 94.916C145.94 94.58 145.932 94.344 145.916 94.208C145.908 94.064 145.888 93.928 145.856 93.8C145.792 93.504 145.648 93.264 145.424 93.08C145.2 92.888 144.92 92.792 144.584 92.792C144.248 92.792 143.968 92.888 143.744 93.08C143.52 93.264 143.36 93.504 143.264 93.8C143.176 94.04 143.132 94.412 143.132 94.916C143.132 95.468 143.172 95.844 143.252 96.044C143.332 96.34 143.488 96.584 143.72 96.776C143.96 96.96 144.248 97.052 144.584 97.052C144.936 97.052 145.22 96.96 145.436 96.776C145.66 96.584 145.804 96.34 145.868 96.044ZM150.777 98.072C150.297 98.072 149.873 98 149.505 97.856C149.145 97.712 148.865 97.516 148.665 97.268C148.465 97.012 148.365 96.732 148.365 96.428V96.296C148.365 96.216 148.405 96.176 148.485 96.176H149.349C149.429 96.176 149.469 96.216 149.469 96.296V96.356C149.469 96.58 149.589 96.776 149.829 96.944C150.077 97.112 150.389 97.196 150.765 97.196C151.125 97.196 151.417 97.12 151.641 96.968C151.865 96.808 151.977 96.608 151.977 96.368C151.977 96.136 151.873 95.964 151.665 95.852C151.457 95.732 151.121 95.608 150.657 95.48C150.201 95.352 149.817 95.224 149.505 95.096C149.201 94.96 148.941 94.772 148.725 94.532C148.517 94.284 148.413 93.968 148.413 93.584C148.413 93.048 148.621 92.624 149.037 92.312C149.461 91.992 150.021 91.832 150.717 91.832C151.181 91.832 151.589 91.908 151.941 92.06C152.301 92.204 152.577 92.408 152.769 92.672C152.961 92.936 153.057 93.232 153.057 93.56V93.596C153.057 93.676 153.017 93.716 152.937 93.716H152.097C152.017 93.716 151.977 93.676 151.977 93.596V93.56C151.977 93.328 151.861 93.136 151.629 92.984C151.405 92.824 151.097 92.744 150.705 92.744C150.353 92.744 150.065 92.812 149.841 92.948C149.625 93.084 149.517 93.268 149.517 93.5C149.517 93.732 149.621 93.908 149.829 94.028C150.045 94.148 150.389 94.276 150.861 94.412C151.325 94.54 151.709 94.668 152.013 94.796C152.325 94.916 152.589 95.1 152.805 95.348C153.021 95.588 153.129 95.904 153.129 96.296C153.129 96.84 152.913 97.272 152.481 97.592C152.057 97.912 151.489 98.072 150.777 98.072Z" fill="white"/>
</svg>
